<svg xmlns="http://www.w3.org/2000/svg" viewBox="0 0 646 310"><defs><style>.cls-1{fill:#2e2d2d;}</style></defs><g id="Layer_2" data-name="Layer 2"><g id="logo"><path class="cls-1" d="M268,102.66a48,48,0,0,0-48,48V207a14,14,0,0,0,14,14h0v74.92l0,0c0,.2,0,.4,0,.6a13.5,13.5,0,0,0,27,0V221a7,7,0,0,1,7-7,7,7,0,0,1,4.89,2,7,7,0,0,1,2.11,5V296.5a13.46,13.46,0,0,0,6.53,11.56,13.08,13.08,0,0,0,4.47,1.7,12.92,12.92,0,0,0,2.5.24A13.49,13.49,0,0,0,302,296.5c0-.2,0-.4,0-.6l0,0V221h0a14,14,0,0,0,14-14V150.66A48,48,0,0,0,268,102.66Z"/><path class="cls-1" d="M158,0H48A48,48,0,1,0,96,48h7a7,7,0,0,1,7,7v49c0,3.87-3.13,6-7,6H48A48,48,0,0,0,0,158V262a48,48,0,0,0,48,48H158a48,48,0,0,0,48-48V48A48,48,0,0,0,158,0ZM110,255a7,7,0,0,1-14,0V165a7,7,0,0,1,14,0Z"/><path class="cls-1" d="M268,0h0a48,48,0,0,0-48,48h0a48,48,0,0,0,48,48h0a48,48,0,0,0,48-48h0A48,48,0,0,0,268,0Z"/><path class="cls-1" d="M598,0c-.67,0-1.34,0-2,0V0H378a48,48,0,0,0-48,48V262a48,48,0,0,0,96,0V55a7,7,0,0,1,14,0V262a48,48,0,0,0,96,0V55a7,7,0,0,1,14,0V262a48,48,0,0,0,96,0V48A48,48,0,0,0,598,0Z"/></g></g></svg>