<svg xmlns="http://www.w3.org/2000/svg" viewBox="0 0 1339.53 310"><defs><style>.cls-1{fill:#2e2d2d;}</style></defs><g id="Layer_2" data-name="Layer 2"><g id="logo"><path class="cls-1" d="M698.46,83.34a3.76,3.76,0,0,1-3.53-1.66,4.19,4.19,0,0,1,.13-4l23-51.68a6.64,6.64,0,0,1,2.13-2.85,5.08,5.08,0,0,1,3-.89,5,5,0,0,1,2.85.89A6.47,6.47,0,0,1,728.21,26l23,51.68a4.48,4.48,0,0,1,.22,4.08,3.5,3.5,0,0,1-3.36,1.62,4.49,4.49,0,0,1-3-.94,7.79,7.79,0,0,1-2-2.89l-4.93-11.39H707.89l-4.84,11.39a7.91,7.91,0,0,1-1.87,2.93A4,4,0,0,1,698.46,83.34ZM723,32.59,711,61h24.22L723.19,32.59Z"/><path class="cls-1" d="M781.93,83.51a46.18,46.18,0,0,1-11.26-1.36,29.46,29.46,0,0,1-9.4-4.08,4.36,4.36,0,0,1-1.95-2.68,4.3,4.3,0,0,1,.3-2.89,3.5,3.5,0,0,1,2-1.83,3.29,3.29,0,0,1,3,.6,28.84,28.84,0,0,0,8.07,3.61A35.71,35.71,0,0,0,781.93,76q7.22,0,10.67-2.6A8.07,8.07,0,0,0,796,66.68a6.57,6.57,0,0,0-2.47-5.4c-1.64-1.33-4.39-2.4-8.24-3.19l-9.1-1.87q-8.07-1.69-12-5.61t-4-10.54a16.1,16.1,0,0,1,2.85-9.44,18.64,18.64,0,0,1,7.95-6.33,28.81,28.81,0,0,1,11.73-2.25,35.24,35.24,0,0,1,9.9,1.36A25.18,25.18,0,0,1,801,27.58a3.83,3.83,0,0,1,1.7,2.46,3.92,3.92,0,0,1-.43,2.68,3.42,3.42,0,0,1-2,1.66,3.84,3.84,0,0,1-3.14-.68,23.7,23.7,0,0,0-6.8-3.19,28.06,28.06,0,0,0-7.57-1q-6.29,0-10,2.81a8.9,8.9,0,0,0-3.7,7.48,7.38,7.38,0,0,0,2.29,5.69q2.3,2.13,7.65,3.23l9,1.87q8.5,1.78,12.67,5.48a12.72,12.72,0,0,1,4.16,10,15.34,15.34,0,0,1-2.8,9.18,18.24,18.24,0,0,1-7.91,6.08A31,31,0,0,1,781.93,83.51Z"/><path class="cls-1" d="M836,83.51a46.32,46.32,0,0,1-11.27-1.36,29.4,29.4,0,0,1-9.39-4.08,4.36,4.36,0,0,1-1.66-5.57,3.55,3.55,0,0,1,2-1.83,3.29,3.29,0,0,1,3,.6,28.84,28.84,0,0,0,8.07,3.61A35.66,35.66,0,0,0,836,76q7.21,0,10.66-2.6a8.06,8.06,0,0,0,3.45-6.75,6.59,6.59,0,0,0-2.47-5.4c-1.64-1.33-4.39-2.4-8.24-3.19l-9.1-1.87q-8.07-1.69-12-5.61t-4-10.54a16.1,16.1,0,0,1,2.85-9.44,18.64,18.64,0,0,1,8-6.33,28.81,28.81,0,0,1,11.73-2.25,35.24,35.24,0,0,1,9.9,1.36A25.18,25.18,0,0,1,855,27.58a3.83,3.83,0,0,1,1.7,2.46,4,4,0,0,1-.43,2.68,3.42,3.42,0,0,1-2,1.66,3.84,3.84,0,0,1-3.14-.68,23.7,23.7,0,0,0-6.8-3.19,28.06,28.06,0,0,0-7.57-1q-6.29,0-10,2.81a8.92,8.92,0,0,0-3.69,7.48,7.38,7.38,0,0,0,2.29,5.69q2.29,2.13,7.65,3.23l9,1.87q8.51,1.78,12.67,5.48a12.72,12.72,0,0,1,4.16,10,15.34,15.34,0,0,1-2.8,9.18,18.24,18.24,0,0,1-7.91,6.08A31,31,0,0,1,836,83.51Z"/><path class="cls-1" d="M874.49,83.34c-2.94,0-4.42-1.51-4.42-4.51V26.73c0-3,1.48-4.51,4.42-4.51s4.42,1.5,4.42,4.51v52.1C878.91,81.83,877.44,83.34,874.49,83.34Z"/><path class="cls-1" d="M914,83.51a46.32,46.32,0,0,1-11.27-1.36,29.3,29.3,0,0,1-9.39-4.08,4.33,4.33,0,0,1-1.66-5.57,3.55,3.55,0,0,1,2-1.83,3.29,3.29,0,0,1,3,.6,28.72,28.72,0,0,0,8.07,3.61A35.66,35.66,0,0,0,914,76q7.22,0,10.66-2.6a8.06,8.06,0,0,0,3.45-6.75,6.59,6.59,0,0,0-2.47-5.4c-1.64-1.33-4.39-2.4-8.25-3.19l-9.09-1.87q-8.07-1.69-12-5.61t-3.95-10.54a16.1,16.1,0,0,1,2.85-9.44,18.58,18.58,0,0,1,7.95-6.33,28.81,28.81,0,0,1,11.73-2.25,35.24,35.24,0,0,1,9.9,1.36,25,25,0,0,1,8.28,4.17,3.79,3.79,0,0,1,1.7,2.46,3.92,3.92,0,0,1-.42,2.68,3.42,3.42,0,0,1-2,1.66,3.86,3.86,0,0,1-3.15-.68,23.52,23.52,0,0,0-6.79-3.19,28.06,28.06,0,0,0-7.57-1q-6.28,0-10,2.81a8.92,8.92,0,0,0-3.69,7.48,7.38,7.38,0,0,0,2.29,5.69q2.29,2.13,7.65,3.23l9,1.87q8.51,1.78,12.67,5.48a12.72,12.72,0,0,1,4.16,10,15.28,15.28,0,0,1-2.81,9.18,18.15,18.15,0,0,1-7.9,6.08A31,31,0,0,1,914,83.51Z"/><path class="cls-1" d="M965.86,83.34c-2.94,0-4.42-1.51-4.42-4.51V30.21h-18c-2.55,0-3.82-1.24-3.82-3.74s1.27-3.65,3.82-3.65h44.8c2.6,0,3.91,1.21,3.91,3.65s-1.31,3.74-3.91,3.74h-18V78.83C970.2,81.83,968.75,83.34,965.86,83.34Z"/><path class="cls-1" d="M1004.71,82.74c-3.18,0-4.76-1.59-4.76-4.76V27.58c0-3.18,1.58-4.76,4.76-4.76h31q3.66,0,3.66,3.48,0,3.66-3.66,3.66h-27.28V48.74h25.41q3.66,0,3.66,3.57t-3.66,3.57h-25.41V75.6h27.28q3.66,0,3.66,3.57t-3.66,3.57Z"/><path class="cls-1" d="M1055.37,83.34q-4.17,0-4.17-4.25V26.64a4.62,4.62,0,0,1,1.07-3.27,3.65,3.65,0,0,1,2.84-1.15,4.41,4.41,0,0,1,2.38.55,7.66,7.66,0,0,1,1.87,2l32.9,43.35V26.38q0-4.15,4.08-4.16t4.08,4.16V79.17a4.48,4.48,0,0,1-1,3.06,3.29,3.29,0,0,1-2.59,1.11,4.67,4.67,0,0,1-2.55-.6,8.47,8.47,0,0,1-2-2l-32.9-43.43V79.09Q1059.36,83.34,1055.37,83.34Z"/><path class="cls-1" d="M1116.65,82.74q-3.32,0-4.16-2.59t1.53-5.82l31.79-44.12H1116c-2.66,0-4-1.24-4-3.74s1.33-3.65,4-3.65h36.13q3.39,0,4.25,2.55t-1.53,5.86l-31.88,44.12h31.11c2.67,0,4,1.21,4,3.65s-1.33,3.74-4,3.74Z"/><path class="cls-1" d="M1166.21,83.34a3.76,3.76,0,0,1-3.53-1.66,4.19,4.19,0,0,1,.13-4l23-51.68a6.64,6.64,0,0,1,2.13-2.85,5.08,5.08,0,0,1,3-.89,5,5,0,0,1,2.85.89A6.47,6.47,0,0,1,1196,26l23,51.68a4.48,4.48,0,0,1,.22,4.08,3.5,3.5,0,0,1-3.36,1.62,4.49,4.49,0,0,1-3-.94,7.79,7.79,0,0,1-1.95-2.89L1206,68.12h-30.35l-4.84,11.39a7.91,7.91,0,0,1-1.87,2.93A4,4,0,0,1,1166.21,83.34Zm24.56-50.75-12,28.39H1203l-12.07-28.39Z"/><path class="cls-1" d="M698.89,191.34c-2.95,0-4.42-1.51-4.42-4.51v-52.1q0-4.51,4.42-4.51t4.42,4.51v52.1C703.31,189.83,701.84,191.34,698.89,191.34Z"/><path class="cls-1" d="M722.61,191.34q-4.17,0-4.17-4.25V134.64a4.61,4.61,0,0,1,1.06-3.27,3.69,3.69,0,0,1,2.85-1.15,4.43,4.43,0,0,1,2.38.55,7.66,7.66,0,0,1,1.87,2l32.9,43.35V134.38q0-4.15,4.08-4.16t4.07,4.16v52.79a4.48,4.48,0,0,1-1,3.06,3.29,3.29,0,0,1-2.59,1.11,4.67,4.67,0,0,1-2.55-.6,8.47,8.47,0,0,1-2-2l-32.9-43.43v41.82Q726.6,191.33,722.61,191.34Z"/><path class="cls-1" d="M787.46,191.34q-4.68,0-4.68-4.68V135.58c0-3.18,1.59-4.76,4.76-4.76H817.8q3.66,0,3.66,3.48,0,3.66-3.66,3.66H791.62v19.12H816.1q3.66,0,3.66,3.49,0,3.65-3.66,3.65H791.62v22.44Q791.62,191.34,787.46,191.34Z"/><path class="cls-1" d="M855.8,191.51a28.26,28.26,0,0,1-14.88-3.79A25.35,25.35,0,0,1,831.19,177a36.08,36.08,0,0,1-3.44-16.27,36,36,0,0,1,3.44-16.32,25.14,25.14,0,0,1,9.73-10.63,31.37,31.37,0,0,1,29.71,0,25.06,25.06,0,0,1,9.78,10.63,36,36,0,0,1,3.44,16.23A36.43,36.43,0,0,1,880.41,177a25.27,25.27,0,0,1-9.78,10.71A28.3,28.3,0,0,1,855.8,191.51Zm0-7.65q8.93,0,13.9-6.08t5-17q0-11-4.93-17t-13.94-6q-8.92,0-13.9,6t-5,17q0,11,5,17T855.8,183.86Z"/><path class="cls-1" d="M901.27,191.34c-2.95,0-4.42-1.51-4.42-4.51V135.32q0-4.5,4.51-4.5h20.31q9.69,0,15,4.63t5.27,13a16.63,16.63,0,0,1-3.57,11,17.64,17.64,0,0,1-10.11,5.74q4.08,1.35,6.88,6.54l7.31,13.6a4.69,4.69,0,0,1,.51,4.17c-.51,1.24-1.67,1.87-3.48,1.87a5.55,5.55,0,0,1-3.06-.77,5.94,5.94,0,0,1-2-2.46l-8.93-16.49a10,10,0,0,0-4.12-4.47,13.7,13.7,0,0,0-6-1.14h-9.61v20.82C905.69,189.83,904.22,191.34,901.27,191.34Zm4.42-32h14.54q13.08,0,13.09-10.8t-13.09-10.71H905.69Z"/><path class="cls-1" d="M959.84,191.34q-4.08,0-4.08-4.17V134.38q0-4.15,4.08-4.16a4.81,4.81,0,0,1,2.76.68,6.47,6.47,0,0,1,1.83,2.21l20.91,39.1,20.91-39.1a6.35,6.35,0,0,1,1.82-2.21,4.66,4.66,0,0,1,2.68-.68q3.91,0,3.91,4.16v52.79q0,4.17-3.91,4.17t-4-4.17V146.88l-17.85,32.9a5.92,5.92,0,0,1-1.45,1.87,3.42,3.42,0,0,1-2.12.59,3.53,3.53,0,0,1-2.26-.64,6.07,6.07,0,0,1-1.48-1.82L963.75,147v40.2C963.75,190,962.44,191.34,959.84,191.34Z"/><path class="cls-1" d="M1029.62,191.34a3.76,3.76,0,0,1-3.53-1.66,4.19,4.19,0,0,1,.13-4l23-51.68a6.64,6.64,0,0,1,2.13-2.85,5.09,5.09,0,0,1,3-.89,5,5,0,0,1,2.84.89,6.47,6.47,0,0,1,2.17,2.85l23,51.68a4.48,4.48,0,0,1,.22,4.08,3.5,3.5,0,0,1-3.36,1.62,4.44,4.44,0,0,1-3-.94,7.8,7.8,0,0,1-2-2.89l-4.93-11.39h-30.35l-4.84,11.39a7.91,7.91,0,0,1-1.87,2.93A4,4,0,0,1,1029.62,191.34Zm24.57-50.75-12,28.39h24.22l-12.06-28.39Z"/><path class="cls-1" d="M1094,190.74q-3.32,0-4.17-2.59t1.53-5.82l31.79-44.12h-29.83c-2.67,0-4-1.24-4-3.74s1.33-3.65,4-3.65h36.12c2.27,0,3.68.85,4.25,2.55s.06,3.65-1.53,5.86l-31.87,44.12h31.11c2.66,0,4,1.21,4,3.65s-1.33,3.74-4,3.74Z"/><path class="cls-1" d="M1149.13,191.34c-3,0-4.42-1.51-4.42-4.51v-52.1q0-4.51,4.42-4.51t4.42,4.51v52.1C1153.55,189.83,1152.08,191.34,1149.13,191.34Z"/><path class="cls-1" d="M1194.69,191.51a28.26,28.26,0,0,1-14.88-3.79,25.35,25.35,0,0,1-9.73-10.71,36.22,36.22,0,0,1-3.44-16.27,36.17,36.17,0,0,1,3.44-16.32,25.14,25.14,0,0,1,9.73-10.63,31.37,31.37,0,0,1,29.71,0,25.06,25.06,0,0,1,9.78,10.63,36,36,0,0,1,3.44,16.23A36.43,36.43,0,0,1,1219.3,177a25.27,25.27,0,0,1-9.78,10.71A28.28,28.28,0,0,1,1194.69,191.51Zm0-7.65q8.93,0,13.9-6.08t5-17q0-11-4.93-17t-13.94-6q-8.93,0-13.9,6t-5,17q0,11,5,17T1194.69,183.86Z"/><path class="cls-1" d="M1239.91,191.34q-4.17,0-4.17-4.25V134.64a4.62,4.62,0,0,1,1.07-3.27,3.65,3.65,0,0,1,2.84-1.15,4.41,4.41,0,0,1,2.38.55,7.66,7.66,0,0,1,1.87,2l32.9,43.35V134.38q0-4.15,4.08-4.16t4.08,4.16v52.79a4.48,4.48,0,0,1-1,3.06,3.29,3.29,0,0,1-2.59,1.11,4.67,4.67,0,0,1-2.55-.6,8.65,8.65,0,0,1-2-2l-32.9-43.43v41.82Q1243.9,191.33,1239.91,191.34Z"/><path class="cls-1" d="M1304.85,190.74c-3.18,0-4.76-1.59-4.76-4.76v-50.4c0-3.18,1.58-4.76,4.76-4.76h31q3.66,0,3.66,3.48,0,3.66-3.66,3.66h-27.28v18.78H1334q3.66,0,3.66,3.57t-3.66,3.57h-25.41V183.6h27.28q3.66,0,3.66,3.57t-3.66,3.57Z"/><path class="cls-1" d="M698.72,299.34q-4.08,0-4.08-4.17V242.38q0-4.15,4.08-4.16a4.81,4.81,0,0,1,2.76.68,6.47,6.47,0,0,1,1.83,2.21l20.91,39.1,20.91-39.1A6.47,6.47,0,0,1,747,238.9a4.63,4.63,0,0,1,2.67-.68q3.92,0,3.91,4.16v52.79q0,4.17-3.91,4.17t-4-4.17V254.88l-17.85,32.9a5.77,5.77,0,0,1-1.44,1.87,3.44,3.44,0,0,1-2.13.59,3.52,3.52,0,0,1-2.25-.64,6.09,6.09,0,0,1-1.49-1.82L702.63,255v40.2Q702.63,299.34,698.72,299.34Z"/><path class="cls-1" d="M773.27,299.34c-2.95,0-4.42-1.51-4.42-4.51v-52.1q0-4.51,4.42-4.51c2.94,0,4.42,1.5,4.42,4.51v52.1C777.69,297.83,776.21,299.34,773.27,299.34Z"/><path class="cls-1" d="M820.86,299.51q-9.76,0-16.48-3.7a24.1,24.1,0,0,1-10.16-10.58,40.42,40.42,0,0,1,0-32.77,24.67,24.67,0,0,1,10.12-10.67,31.84,31.84,0,0,1,15.89-3.74,38.17,38.17,0,0,1,10,1.32,28.2,28.2,0,0,1,9,4.29,3.72,3.72,0,0,1,1.66,2.51,4.41,4.41,0,0,1-.51,2.8,3.72,3.72,0,0,1-2.08,1.79,3.65,3.65,0,0,1-3.07-.55,24,24,0,0,0-7-3.36,28.77,28.77,0,0,0-8.07-1.06q-9.94,0-15.13,6t-5.18,17q0,11.31,5.31,17.17t15.94,5.87A40.27,40.27,0,0,0,834,289.73V273.67h-11c-2.43,0-3.65-1.14-3.65-3.4s1.22-3.23,3.65-3.23h14.71q3.65,0,3.65,3.65v21.42q0,3.22-2.38,4.17a45.17,45.17,0,0,1-8.58,2.33A53.49,53.49,0,0,1,820.86,299.51Z"/><path class="cls-1" d="M860.56,299.34c-2.95,0-4.42-1.51-4.42-4.51V243.32q0-4.5,4.5-4.5H881q9.69,0,15,4.63t5.27,13a16.63,16.63,0,0,1-3.57,11,17.63,17.63,0,0,1-10.12,5.74q4.08,1.35,6.89,6.54l7.31,13.6a4.69,4.69,0,0,1,.51,4.17c-.51,1.24-1.67,1.87-3.49,1.87a5.6,5.6,0,0,1-3.06-.77,6.09,6.09,0,0,1-2-2.46l-8.92-16.49a10.07,10.07,0,0,0-4.12-4.47,13.72,13.72,0,0,0-6-1.14H865v20.82C865,297.83,863.5,299.34,860.56,299.34Zm4.42-32h14.53q13.1,0,13.09-10.8t-13.09-10.71H865Z"/><path class="cls-1" d="M913.51,299.34a3.76,3.76,0,0,1-3.53-1.66,4.22,4.22,0,0,1,.13-4l23-51.68a6.55,6.55,0,0,1,2.12-2.85,5.22,5.22,0,0,1,5.83,0,6.45,6.45,0,0,1,2.16,2.85l23,51.68c.73,1.64.81,3,.21,4.08a3.5,3.5,0,0,1-3.36,1.62,4.44,4.44,0,0,1-3-.94,7.8,7.8,0,0,1-2-2.89l-4.93-11.39H923l-4.85,11.39a7.79,7.79,0,0,1-1.87,2.93A4,4,0,0,1,913.51,299.34Zm24.57-50.75-12,28.39h24.23l-12.07-28.39Z"/><path class="cls-1" d="M981.77,299.34q-4.17,0-4.17-4.25V242.64a4.66,4.66,0,0,1,1.06-3.27,3.69,3.69,0,0,1,2.85-1.15,4.41,4.41,0,0,1,2.38.55,7.66,7.66,0,0,1,1.87,2l32.9,43.35V242.38q0-4.15,4.08-4.16t4.08,4.16v52.79a4.48,4.48,0,0,1-1,3.06,3.29,3.29,0,0,1-2.59,1.11,4.67,4.67,0,0,1-2.55-.6,8.47,8.47,0,0,1-2-2l-32.9-43.43v41.82Q985.76,299.34,981.77,299.34Z"/><path class="cls-1" d="M1061,299.34c-3,0-4.42-1.51-4.42-4.51V246.21h-18c-2.55,0-3.83-1.24-3.83-3.74s1.28-3.65,3.83-3.65h44.79c2.61,0,3.91,1.21,3.91,3.65s-1.3,3.74-3.91,3.74h-18v48.62C1065.32,297.83,1063.88,299.34,1061,299.34Z"/><path class="cls-1" d="M1099.49,299.34c-3,0-4.42-1.51-4.42-4.51v-52.1q0-4.51,4.42-4.51t4.42,4.51v52.1C1103.91,297.83,1102.44,299.34,1099.49,299.34Z"/><path class="cls-1" d="M268,102.66a48,48,0,0,0-48,48V207a14,14,0,0,0,14,14h0v74.92l0,0c0,.2,0,.4,0,.6a13.5,13.5,0,0,0,27,0V221a7,7,0,0,1,7-7,7,7,0,0,1,4.89,2,7,7,0,0,1,2.11,5V296.5a13.46,13.46,0,0,0,6.53,11.56,13.08,13.08,0,0,0,4.47,1.7,12.92,12.92,0,0,0,2.5.24A13.49,13.49,0,0,0,302,296.5c0-.2,0-.4,0-.6l0,0V221h0a14,14,0,0,0,14-14V150.66A48,48,0,0,0,268,102.66Z"/><path class="cls-1" d="M158,0H48A48,48,0,1,0,96,48h7a7,7,0,0,1,7,7v49c0,3.87-3.13,6-7,6H48A48,48,0,0,0,0,158V262a48,48,0,0,0,48,48H158a48,48,0,0,0,48-48V48A48,48,0,0,0,158,0ZM110,255a7,7,0,0,1-14,0V165a7,7,0,0,1,14,0Z"/><path class="cls-1" d="M268,0h0a48,48,0,0,0-48,48h0a48,48,0,0,0,48,48h0a48,48,0,0,0,48-48h0A48,48,0,0,0,268,0Z"/><path class="cls-1" d="M598,0c-.67,0-1.34,0-2,0V0H378a48,48,0,0,0-48,48V262a48,48,0,0,0,96,0V55a7,7,0,0,1,14,0V262a48,48,0,0,0,96,0V55a7,7,0,0,1,14,0V262a48,48,0,0,0,96,0V48A48,48,0,0,0,598,0Z"/></g></g></svg>