<svg xmlns="http://www.w3.org/2000/svg" viewBox="0 0 134.14 134.14"><defs><style>.cls-1{fill:none;opacity:0.5;}.cls-2{fill:#1d1d1b;opacity:0.2;}</style></defs><g id="Layer_2" data-name="Layer 2"><g id="quadrato_per_esportare" data-name="quadrato per esportare"><rect class="cls-1" width="134.14" height="134.14"/></g><g id="icone"><g id="mail"><path class="cls-2" d="M18.34,42.34c-1.27,11.35-.7,19.2-.82,28.76a102.36,102.36,0,0,0,1.14,19.41c.44,2.64,1,5.17,2.85,7.54,3.17,4,8.12,5,10.64,5.5,12.61,2.26,26.37,1.8,35.12,1.73,11.39-.09,22.75-1.21,34.13-1.73,2-.1,6.69-.31,10.17-3.61a14.52,14.52,0,0,0,3.88-7.89c1.75-8.11,1.1-13.42,1-22.13,0-5.85.21-15-.72-26.3a14.28,14.28,0,0,0-2.56-7.74c-2.85-3.8-7.36-4.91-9.69-5.41-12-2.56-26-1.47-37.4-1.46,0,0-20.6,0-35.64,1.46-1.84.18-6,.64-9,3.76C19,36.9,18.57,40.26,18.34,42.34Z"/><path class="cls-2" d="M18.27,42.93a4.39,4.39,0,0,0,2,2.1c13.93,8,20.9,12,21.81,12.45C48,60.5,63.18,69,65,70.82a2.56,2.56,0,0,0,1.47.82,2.8,2.8,0,0,0,2-.66c2.46-1.83,19.84-12.41,23.19-14.37,1.65-1,18.31-10.62,22.21-12.39a3.64,3.64,0,0,0,1.86-1.66,4,4,0,0,0-.12-3.08,13.33,13.33,0,0,0-4.84-6.06,20.33,20.33,0,0,0-8.67-3.24,146.54,146.54,0,0,0-23-1.37c-15.25.49-22.88.74-28.24.49,0,0-6-.29-20.29,1.17a14.87,14.87,0,0,0-8.33,3.13A10.81,10.81,0,0,0,18.28,40,5.53,5.53,0,0,0,18.27,42.93Z"/></g></g></g></svg>