<svg xmlns="http://www.w3.org/2000/svg" viewBox="0 0 134.14 134.14"><defs><style>.cls-1{fill:none;opacity:0.5;}.cls-2{fill:#1d1d1b;opacity:0.2;}</style></defs><g id="Layer_2" data-name="Layer 2"><g id="quadrato_per_esportare" data-name="quadrato per esportare"><rect class="cls-1" width="134.14" height="134.14"/></g><g id="icone"><g id="birth"><path class="cls-2" d="M24.83,94.11a5.29,5.29,0,0,1,2.75-2c5.63-2.12,29.29-.09,38.57,0,10.7.1,33.69-2.09,40.08.2a5.72,5.72,0,0,1,3.16,2.31c.75,1.25.44,2.21.27,6.22-.19,4.26.1,4.92-.59,5.8-1.51,1.9-5,1.45-6,1.33-4.25-.5-15.36-.3-37.59.11-11.75.22-23.52-.43-35.27-.11-1,0-4,.12-5.36-1.71-.81-1.11-.12-1.87-.37-6.38C24.29,96.66,24,95.45,24.83,94.11Z"/><path class="cls-2" d="M29.11,65a7.86,7.86,0,0,1,2-4.83,6.84,6.84,0,0,1,3-1.64c6.54-1.86,24.89-.46,24.89-.46A98.73,98.73,0,0,0,75,57.91c2.84-.22,15-1.25,23.26.15,1.38.23,4.12.7,5.7,2.85a7.42,7.42,0,0,1,1.21,4.49c.2,6.91-.08,10.62,0,14.32.06,5.61.33,10.6.33,10.6.16,3,.32,5-1,6.17s-3.59,1-5.48.73c-4.43-.49-8.91.53-13.37.3-13.53-.67-23.85-1.16-34.06-.45-4.08.29-8.17-.1-12.25,0-4.75.16-7.21.41-8.83-1.27-1-1.07-1.26-2.44-1.36-7.13-.13-5.82.15-7,.08-10.68C29.11,73.12,28.52,70,29.11,65Z"/><path class="cls-2" d="M34,78.42a10,10,0,0,0,6.18-1.31c3.1-1.64,3.32-3.48,5.31-3.56,1.09,0,1.36.49,4.35,2.26,3.38,2,5.07,3,6.79,3s2.95-.8,5.23-2.18c3.25-2,3.46-3.19,5.05-3.22s1.79,1.11,5.13,3c2.53,1.46,3.8,2.2,5.49,2.17s3.31-1,6.44-3c2.48-1.55,3-2.2,4.18-2.26,1.75-.08,2.59,1.35,4.7,2.79a16,16,0,0,0,7,2.7c1.51.17,4.09.47,5.25-1,.75-.92.28-1.78.09-5.05-.21-3.88.35-4.57-.09-8.37-.32-2.87-.79-3.73-1.33-4.34A6,6,0,0,0,100,58.42a149.78,149.78,0,0,0-25-.51,107.91,107.91,0,0,1-15.91.15A165.34,165.34,0,0,0,36.92,58a8.18,8.18,0,0,0-5.43,1.87A9.17,9.17,0,0,0,29.11,65c-.3,1.41-.07,1.38-.21,6.55-.07,2.87-.15,3.29.21,4C30.28,77.87,33.46,78.33,34,78.42Z"/><path class="cls-2" d="M59.46,58.83c-1-1-.05-1.54-.72-7.65,0,0-.44-3.94.55-5.84a5.7,5.7,0,0,1,.78-1.13,5.93,5.93,0,0,1,1-.87c1-.62,2.24-.44,3.82-.38,1.89.08,1.48-.13,4.64-.09a9.84,9.84,0,0,1,3.56.64,3.46,3.46,0,0,1,1,.7A3.78,3.78,0,0,1,75,45.43c.75,1.9.26,6.85.26,6.85-.49,4.95.51,5.72-.5,6.74s-2.23.44-7.15.34C61.8,59.23,60.6,60,59.46,58.83Z"/><path class="cls-2" d="M67.36,26.07a1.83,1.83,0,0,0-1.34.57c-3,2.58-4.45,3.87-5.3,5.62a8.64,8.64,0,0,0-1.27,5.22,7.17,7.17,0,0,0,3,4.93,7.64,7.64,0,0,0,4.41,1A8.18,8.18,0,0,0,72.51,42a7.35,7.35,0,0,0,2.61-5.07c.09-1.85-.66-3.09-2.09-5.45-.77-1.28-2.11-2.49-4.78-4.93A1.53,1.53,0,0,0,67.36,26.07Z"/></g></g></g></svg>