<svg xmlns="http://www.w3.org/2000/svg" viewBox="0 0 134.14 134.14"><defs><style>.cls-1{fill:none;opacity:0.5;}.cls-2{fill:#1d1d1b;opacity:0.2;}</style></defs><g id="Layer_2" data-name="Layer 2"><g id="quadrato_per_esportare" data-name="quadrato per esportare"><rect class="cls-1" width="134.14" height="134.14"/></g><g id="icone"><g id="phone"><path class="cls-2" d="M54.3,53.56A8.2,8.2,0,0,0,51.56,57a8.15,8.15,0,0,0,.23,5.48,30,30,0,0,0,7.07,11.18c4.3,4.46,7.88,8.16,13.47,8.9,1.32.18,5.51.74,7.53-1.6,1.49-1.73.36-3.42,1.82-5.47,1.82-2.55,6-3.39,9.13-2.51,1.87.52,2.2,1.34,6.84,5.93,5.71,5.65,6.61,5.81,7.76,8.22a13.06,13.06,0,0,1,1.3,8.67c-1.61,6.74-9.56,9.43-11.34,10a25,25,0,0,1-14.15.23C54.4,99.43,30.81,63.68,27.6,48.54a17.06,17.06,0,0,1,.23-8.9c2.16-6.71,8.51-9.85,9.81-10.5,2.28-1.12,4.84-2.39,8-1.83,3,.53,4.75,2.38,7.76,5.49a26.21,26.21,0,0,1,5.93,8.67c1.29,3.17,2.58,6.35,1.14,8.44C59.28,51.62,57.44,50.91,54.3,53.56Z"/></g></g></g></svg>