<svg xmlns="http://www.w3.org/2000/svg" viewBox="0 0 134.14 134.14"><defs><style>.cls-1{fill:none;opacity:0.5;}.cls-2{fill:#1d1d1b;opacity:0.2;}</style></defs><g id="Layer_2" data-name="Layer 2"><g id="quadrato_per_esportare" data-name="quadrato per esportare"><rect class="cls-1" width="134.14" height="134.14"/></g><g id="icone"><g id="behance"><path class="cls-2" d="M11.22,33.48c0-.09-.28-.72,0-1s1,0,1.12,0,4.19,0,12.5,0c13.45,0,15.83-1.36,23.42,0,4.8.87,8.69,1.62,12.07,4.91a18.33,18.33,0,0,1,5,10.44c.4,2.61,1.11,7.18-1.38,10.44-1.3,1.69-4.8,4.77-6.12,5.23-.11,0-.64.22-.63.42s.56.35.67.38c1.26.34,5.22,3.23,7.14,5.73,2.59,3.38,2.53,7.45,2.49,10a20.54,20.54,0,0,1-3.82,12c-3.78,5.08-9.17,6.67-13.2,7.8-5.4,1.52-6.15.41-25.77.49-4.53,0-13.12.11-13.12.11h0l-.4-.7C10.43,98.37,12,35.83,11.22,33.48Z"/><path class="cls-2" d="M24.93,44.6c0-.05-.1-.3,0-.4s.45,0,.5,0c.83.32,6.36.15,9.19.07,6.84-.21,7.46-.22,8.76-.1,4,.35,5.13,1,5.8,1.57a7.88,7.88,0,0,1,2.65,5.54A7.76,7.76,0,0,1,49,57.78c-.63.48-1.6,1-5.67,1.41a85.3,85.3,0,0,1-9.89.13c-4.44-.08-7.64-.27-8.15-.1,0,0-.26.1-.37,0s0-.38,0-.43C25.29,57.66,25.31,45.76,24.93,44.6Z"/><path class="cls-2" d="M24.94,70.8a.49.49,0,0,1,.14-.27.58.58,0,0,1,.4-.13c10.23,0,11.08.11,11.08.11,6.82.1,7.34.08,8.77.36,4.2.83,5.47,2.09,5.83,2.48a8.8,8.8,0,0,1,2,6.27A9.45,9.45,0,0,1,51,85.77L50.8,86c-1.31,1.31-3.24,2.3-6.63,2.72-2.05.26-2.09,0-8.53,0-1.92,0-2.88,0-3.17,0-2.41.14-4.83-.13-7.24,0a.3.3,0,0,1-.22-.06c-.11-.1-.07-.29-.07-.32C25,87.8,24.72,71.81,24.94,70.8Z"/><path class="cls-2" d="M85.68,79.73c0-.15-.1-.51.09-.68s.55-.07.63,0c3.45.94,7.14-.09,10.71.1,5.16.27,4.13,0,7.86.24,0,0,4.33.29,17.14-.29a.74.74,0,0,0,.49-.18.94.94,0,0,0,.18-.73c-.11-1.37.88-3.71,0-8.49a24.63,24.63,0,0,0-14.67-18.92,26.29,26.29,0,0,0-15-1.54c-3,.47-8.14,1.28-12.84,5.38-5,4.37-6.52,9.87-7.26,12.63a31.3,31.3,0,0,0-.77,11.66c.4,4.61.79,9.06,3.77,13.33,3.65,5.25,9,7.11,12.49,8.31a29.8,29.8,0,0,0,17.66.77,25.56,25.56,0,0,0,9.92-5.17,23.76,23.76,0,0,0,5.9-9.75c0-.11.15-.44,0-.6s-.59,0-.69,0c-1.64.45-11.54.15-12.31,0a.52.52,0,0,0-.43.08.38.38,0,0,0-.1.29c0,.35-1.33,2.69-4.37,4.18a12.64,12.64,0,0,1-6.78,1.12,12.79,12.79,0,0,1-6.45-2.18,13.47,13.47,0,0,1-4.25-5.18C86.53,83.94,86.24,82.54,85.68,79.73Z"/><path class="cls-2" d="M86,69.53a.74.74,0,0,0,.9.84c1.22-.08,10-.07,10.28-.07,1.06,0,10.34.11,11.2.07a.64.64,0,0,0,.42-.16.71.71,0,0,0,.1-.58c-.66-3.85-1.48-5.07-1.48-5.07a10.27,10.27,0,0,0-4.53-3.63,12.66,12.66,0,0,0-5.55-1.13A11.08,11.08,0,0,0,91.62,61a11.66,11.66,0,0,0-4,3.95A9.42,9.42,0,0,0,86,69.53Z"/><path class="cls-2" d="M82.5,36a.51.51,0,0,1,.13-.29.67.67,0,0,1,.52-.15c.81,0,14,0,14,0,1.12,0,14.08,0,14.58-.06a.36.36,0,0,1,.26.07.36.36,0,0,1,.07.31,34.28,34.28,0,0,0,.06,3.79s0,3.47,0,4.21a.31.31,0,0,1-.11.22.22.22,0,0,1-.2,0c-.35,0-12-.07-14.76,0-4.7.1-9.4-.16-14.1,0a.54.54,0,0,1-.39-.12.55.55,0,0,1-.1-.39c.11-1.19,0-2.38,0-3.58C82.42,39.82,82.39,36.68,82.5,36Z"/></g></g></g></svg>