<svg xmlns="http://www.w3.org/2000/svg" viewBox="0 0 960 960"><defs><style>.cls-1{fill:none;}.cls-2{fill:#fff;}</style></defs><g id="Layer_2" data-name="Layer 2"><g id="monogram"><rect class="cls-1" width="960" height="960"/><path d="M436.33,945V641.88A314.88,314.88,0,0,1,241,125.75,313.15,313.15,0,0,1,449.88,16.51C460,15.51,470.42,15,480.83,15a319.42,319.42,0,0,1,32,1.61,315,315,0,0,1,13.49,625.13V945Zm-136-480a225,225,0,0,0,136,85.7V379.3A225,225,0,0,0,300.31,465Zm226,85.29a225.35,225.35,0,0,0,174.59-264.9,313.47,313.47,0,0,1-82.61,58.1,312.45,312.45,0,0,1-92,28.25Zm-90-441A225.28,225.28,0,0,0,259.92,375.43a314.33,314.33,0,0,1,176.41-87.31Zm90,171a225.26,225.26,0,0,0,134-85.29,225.26,225.26,0,0,0-134-85.29Z"/><path class="cls-2" d="M480.83,30a304.28,304.28,0,0,1,30.5,1.53,300,300,0,0,1,0,596.94V930h-60V628.56a300,300,0,0,1,0-597.12Q465.88,30,480.83,30M252.44,405.48a299.25,299.25,0,0,1,198.89-104V91.74A240.21,240.21,0,0,0,252.44,405.48M511.33,298A239.91,239.91,0,0,0,678.79,195,239.91,239.91,0,0,0,511.33,92V298m0,270A240.23,240.23,0,0,0,708.5,255.36,300.79,300.79,0,0,1,611.75,330a298.24,298.24,0,0,1-100.42,28.47V568m-60,.25V361.74A239.9,239.9,0,0,0,281.87,465,239.9,239.9,0,0,0,451.33,568.26M480.83,0c-10.9,0-21.82.53-32.45,1.59A329.27,329.27,0,0,0,229.61,116a330.16,330.16,0,0,0,96.8,505.69,326.63,326.63,0,0,0,94.92,32.94V960h120V654.47a330.2,330.2,0,0,0,260.34-247A330.36,330.36,0,0,0,635.18,38.25,327.23,327.23,0,0,0,514.35,1.68C503.26.57,492,0,480.83,0ZM270.88,345.33q-.54-7.63-.55-15.33a210,210,0,0,1,151-201.6v147a329.69,329.69,0,0,0-150.45,70ZM541.33,261V129a210.28,210.28,0,0,1,99.87,66,210.28,210.28,0,0,1-99.87,66Zm0,123.47A327,327,0,0,0,624.86,357a329,329,0,0,0,65-41.53q.49,7.24.49,14.55a210,210,0,0,1-149,201V384.46ZM319.46,465a210,210,0,0,1,101.87-66.6V531.6A210,210,0,0,1,319.46,465Z"/></g></g></svg>