<svg xmlns="http://www.w3.org/2000/svg" viewBox="0 0 895.07 346.53"><g id="Layer_2" data-name="Layer 2"><g id="text_bw" data-name="text bw"><path d="M894.64,164.6a86.64,86.64,0,0,0-172.41,0q-.42,4.28-.42,8.67t.42,8.66a86.65,86.65,0,0,0,86.21,78V242.57a69.31,69.31,0,0,1-68.77-60.64h155a87.52,87.52,0,0,0,0-17.33Zm-155,0a69.31,69.31,0,0,1,137.54,0Z"/><polygon points="702.02 164.6 702.02 181.93 632.71 181.93 632.71 346.53 615.39 346.53 615.39 181.93 537.42 181.93 537.42 164.6 615.39 164.6 615.39 86.64 632.71 86.64 632.71 164.6 702.02 164.6"/><rect x="481.2" width="17.32" height="17.33"/><rect x="481.2" y="86.63" width="17.32" height="173.26"/><rect x="424.91" y="86.63" width="17.32" height="259.9"/><path d="M384.91,164.6a86.64,86.64,0,0,0-172.41,0,86.66,86.66,0,0,0,16.89,60.65,86.65,86.65,0,0,0,155.52-43.32q.42-4.27.42-8.66T384.91,164.6Zm-17.44,17.33a69.31,69.31,0,0,1-137.54,0,69.79,69.79,0,0,1,0-17.33,69.31,69.31,0,0,1,137.54,0,69.79,69.79,0,0,1,0,17.33Z"/><path d="M172.84,164.6a86.64,86.64,0,0,0-172.41,0A85.6,85.6,0,0,0,0,173.27V346.53H17.32V225.25a86.65,86.65,0,0,0,155.52-43.32q.42-4.27.42-8.66T172.84,164.6ZM155.4,181.93a69.31,69.31,0,0,1-137.54,0,69.79,69.79,0,0,1,0-17.33,69.31,69.31,0,0,1,137.54,0,69.79,69.79,0,0,1,0,17.33Z"/></g></g></svg>