<svg xmlns="http://www.w3.org/2000/svg" viewBox="0 0 180.44 79.1"><defs><style>.cls-1{fill:#eac995;}.cls-2{fill:#e69563;}.cls-3{fill:#eed09f;}.cls-4{fill:#36808c;}.cls-5{fill:#57978b;}</style></defs><g id="Layer_2" data-name="Layer 2"><g id="colori"><g id="STELLE"><path class="cls-1" d="M11.71,75l.22.48a2.31,2.31,0,0,0,1.3,1.32c.38.17.38.53,0,.7a2.4,2.4,0,0,0-1.31,1.31c-.19.4-.55.38-.73,0A2.36,2.36,0,0,0,9.91,77.5a.5.5,0,0,1-.27-.34.6.6,0,0,1,.28-.38,2.27,2.27,0,0,0,1.29-1.32C11.26,75.34,11.42,75.26,11.71,75Z"/><path class="cls-1" d="M5.39,62.48c.23.51.42.87.57,1.26a6,6,0,0,0,3.4,3.43c1,.45,1,1.39,0,1.83a6.35,6.35,0,0,0-3.42,3.41c-.47,1.06-1.42,1-1.88-.06A6.25,6.25,0,0,0,.7,69c-.32-.14-.72-.6-.7-.88a1.42,1.42,0,0,1,.71-1A6,6,0,0,0,4.1,63.68C4.23,63.36,4.65,63.15,5.39,62.48Z"/><path class="cls-1" d="M161.78,2.93c.17.37.3.63.41.91a4.38,4.38,0,0,0,2.47,2.49c.73.33.72,1,0,1.33a4.58,4.58,0,0,0-2.48,2.47c-.34.77-1,.74-1.36,0a4.52,4.52,0,0,0-2.43-2.43c-.23-.1-.52-.43-.51-.64a1,1,0,0,1,.52-.72,4.31,4.31,0,0,0,2.45-2.5C160.94,3.57,161.24,3.42,161.78,2.93Z"/><path class="cls-1" d="M172.26,61.31c.08.19.16.33.21.48a2.36,2.36,0,0,0,1.31,1.32c.38.17.38.53,0,.7a2.42,2.42,0,0,0-1.31,1.3c-.18.41-.54.39-.72,0a2.33,2.33,0,0,0-1.28-1.28c-.12-.06-.28-.23-.27-.34a.58.58,0,0,1,.27-.38,2.28,2.28,0,0,0,1.3-1.32C171.81,61.65,172,61.57,172.26,61.31Z"/><path class="cls-1" d="M177.55,54.32c0,.25,0,.43,0,.61a2.65,2.65,0,0,0,.74,2c.32.37.15.75-.34.74a2.88,2.88,0,0,0-2,.75c-.39.34-.76.15-.75-.37a2.78,2.78,0,0,0-.74-2,.55.55,0,0,1-.12-.48.61.61,0,0,1,.47-.27,2.7,2.7,0,0,0,2-.77C176.92,54.46,177.12,54.45,177.55,54.32Z"/><path class="cls-1" d="M179.15,60.71c.06.14.11.24.15.35a1.71,1.71,0,0,0,.93.94c.28.12.28.38,0,.5a1.75,1.75,0,0,0-.94.93c-.12.29-.38.28-.51,0a1.69,1.69,0,0,0-.92-.92c-.09,0-.2-.17-.19-.24a.35.35,0,0,1,.2-.27,1.65,1.65,0,0,0,.92-1C178.83,61,178.94,60.9,179.15,60.71Z"/><path class="cls-1" d="M17.3,2.15c0,.25,0,.43,0,.61a2.7,2.7,0,0,0,.75,2c.32.37.14.75-.35.74a2.88,2.88,0,0,0-2,.75c-.39.34-.77.15-.75-.37a2.82,2.82,0,0,0-.74-2,.55.55,0,0,1-.12-.48.61.61,0,0,1,.47-.27,2.69,2.69,0,0,0,2-.78C16.66,2.29,16.87,2.28,17.3,2.15Z"/><path class="cls-1" d="M18.89,8.54c.07.14.12.24.16.34a1.67,1.67,0,0,0,.93.95c.28.12.27.38,0,.5a1.75,1.75,0,0,0-.94.93c-.13.29-.39.28-.52,0a1.66,1.66,0,0,0-.91-.91c-.09,0-.2-.17-.19-.24a.34.34,0,0,1,.19-.27,1.64,1.64,0,0,0,.93-1C18.57,8.78,18.69,8.72,18.89,8.54Z"/><path class="cls-1" d="M12.17,9.42l.22.48a2.34,2.34,0,0,0,1.3,1.32c.39.17.39.53,0,.7a2.44,2.44,0,0,0-1.31,1.31c-.18.4-.54.38-.72,0a2.39,2.39,0,0,0-1.28-1.28c-.13-.05-.28-.23-.27-.33a.55.55,0,0,1,.27-.39,2.26,2.26,0,0,0,1.3-1.32C11.73,9.76,11.89,9.68,12.17,9.42Z"/><path class="cls-1" d="M154.82,0l.15.34a1.67,1.67,0,0,0,.94.94c.27.13.27.39,0,.51a1.7,1.7,0,0,0-.93.93c-.13.29-.39.28-.52,0a1.68,1.68,0,0,0-.92-.91c-.09,0-.2-.17-.19-.24a.39.39,0,0,1,.2-.28,1.61,1.61,0,0,0,.92-.94C154.5.24,154.61.18,154.82,0Z"/></g></g><g id="testo"><path class="cls-2" d="M44.89,52.84c0,1.78,0,3.46,0,5.15,0,2.11-.69,3-2.78,3.2a30.38,30.38,0,0,1-5.31,0c-2-.16-2.62-1-2.25-3,.44-2.37,1.21-4.7,1.54-7.08.59-4.35,1-8.72,1.43-13.08A4.59,4.59,0,0,1,38,35.92a3.07,3.07,0,0,1,1.95-1.19,50.38,50.38,0,0,1,6,0,1.87,1.87,0,0,1,1.93,2c.33-.25.59-.41.81-.61a6.51,6.51,0,0,1,7-1.6A6.29,6.29,0,0,1,60,40a15.51,15.51,0,0,1-2.48,11.31,8.51,8.51,0,0,1-9.37,3.44A17.53,17.53,0,0,1,44.89,52.84Zm.7-6,.11,0c0,.6,0,1.21,0,1.81.07.77.21,1.56,1.16,1.76a1.73,1.73,0,0,0,2-1,16.27,16.27,0,0,0,1.4-9.54,1.3,1.3,0,0,0-2.36-.65,5.5,5.5,0,0,0-1.21,2.19C46.23,43.17,46,45,45.59,46.83Z"/><path class="cls-2" d="M39.39,62.83c-.9,0-1.81,0-2.72-.11a4,4,0,0,1-3.08-1.41,4.15,4.15,0,0,1-.54-3.42c.2-1,.45-2.08.7-3.07a40.22,40.22,0,0,0,.83-3.94c.39-2.88.69-5.84,1-8.7.14-1.42.29-2.89.45-4.34,0-.14,0-.28,0-.42A4.31,4.31,0,0,1,36.73,35a4.56,4.56,0,0,1,3.05-1.8,51.48,51.48,0,0,1,6.21,0,3.53,3.53,0,0,1,2.45,1A7.94,7.94,0,0,1,56.19,33a7.83,7.83,0,0,1,5.33,6.73,17,17,0,0,1-2.73,12.38,10,10,0,0,1-11,4,6.58,6.58,0,0,1-1.33-.57c0,.81,0,1.6,0,2.41,0,3-1.34,4.44-4.16,4.7C41.31,62.79,40.35,62.83,39.39,62.83ZM36,59.47a1.81,1.81,0,0,0,.91.22,29.33,29.33,0,0,0,5,0,1.89,1.89,0,0,0,1.15-.35c.09-.1.24-.42.25-1.34V50.2l1.86,1.08a3.67,3.67,0,0,1-1-2.48c0-.27,0-.54,0-.8l-.33-.09.27-1.38c.1-.51.19-1,.29-1.56.24-1.3.48-2.64.82-4a7.07,7.07,0,0,1,1.23-2.43l-.11-1.82c0-.48-.12-.5-.48-.52a49.51,49.51,0,0,0-5.84,0,1.69,1.69,0,0,0-.82.56,4.18,4.18,0,0,0-.11.82c0,.19,0,.37,0,.54-.16,1.44-.31,2.9-.45,4.32-.29,2.88-.59,5.87-1,8.8a41.17,41.17,0,0,1-.88,4.26c-.25,1-.49,1.94-.67,2.9a2,2,0,0,0,0,1Zm10.08-7.68.82.52a7,7,0,0,0,1.68.92,7,7,0,0,0,7.71-2.84,14,14,0,0,0,2.21-10.24,4.75,4.75,0,0,0-3.32-4.25,5,5,0,0,0-5.49,1.26l0,.05.18,0a2.81,2.81,0,0,1,1.93,2.4,17.59,17.59,0,0,1-1.56,10.42,3.22,3.22,0,0,1-3.65,1.84A2.91,2.91,0,0,1,46.09,51.79ZM47.28,49h0a.58.58,0,0,0,.19-.25,14.48,14.48,0,0,0,1.3-8.2,4.1,4.1,0,0,0-.64,1.27c-.31,1.22-.54,2.45-.78,3.75-.05.3-.1.59-.16.89v.44c0,.2,0,.4,0,.6,0,.38,0,.75,0,1.08A2.24,2.24,0,0,0,47.28,49ZM39.2,36.79Z"/><path class="cls-2" d="M23.65,29.11c1.79.11,3.24.14,4.69.29,3,.32,3.74,1,4,3.9.55,6,1,12,1.38,18,.15,2.32-.5,3-2.81,3.14a42.92,42.92,0,0,1-5.32,0c-1.9-.12-2.68-1.27-2.33-3.16a20.21,20.21,0,0,1,.54-2c.19-.61,0-.93-.65-1h-.37c-3.08-.09-3.08-.09-3.1,2.94a2.73,2.73,0,0,1-2.62,3,35.46,35.46,0,0,1-5.55,0,1.87,1.87,0,0,1-1.82-2.72c1-2.81,2.12-5.57,3.25-8.32.82-2,1.85-4,2.55-6a11.69,11.69,0,0,0,.57-4.11c-.09-2.15.6-3.37,2.74-3.69C20.51,29.23,22.25,29.21,23.65,29.11Zm1.09,10.22H24.6c0-1,.06-2.1,0-3.14A5,5,0,0,0,24,34.76c-.4.37-1,.68-1.16,1.14-.81,2.23-1.5,4.5-2.22,6.76a4,4,0,0,0-.09.69c1,.1,2,.26,3,.29a1.85,1.85,0,0,0,1.1-.48c.15-.12.07-.53.07-.81C24.74,41.34,24.74,40.34,24.74,39.33Z"/><path class="cls-2" d="M28,56c-.86,0-1.69,0-2.49-.07a4,4,0,0,1-3.08-1.46,4.19,4.19,0,0,1-.65-3.5,10.34,10.34,0,0,1,.28-1.16h-.81c0,.36,0,.91,0,1.44a4.25,4.25,0,0,1-4,4.56,35,35,0,0,1-5.8,0,3.64,3.64,0,0,1-2.89-1.52,3.58,3.58,0,0,1-.26-3.2c.88-2.55,1.91-5.08,2.91-7.52l.37-.89c.33-.81.69-1.6,1-2.37a37.73,37.73,0,0,0,1.48-3.55,10.2,10.2,0,0,0,.49-3.56c-.13-3.07,1.23-4.84,4-5.25,1.28-.19,2.56-.26,3.69-.32l1.28-.07h.2l1.64.09c1.08.05,2.1.1,3.12.21a6.4,6.4,0,0,1,3.9,1.37,5.87,5.87,0,0,1,1.46,3.9c.49,5.35.93,11.08,1.38,18a4.64,4.64,0,0,1-.85,3.47A4.64,4.64,0,0,1,31,55.93C30,56,29,56,28,56Zm-6.31-9.24,1.15,0h.34a2.2,2.2,0,0,1,1.84.86,2.26,2.26,0,0,1,.25,2.06l-.08.26a13.54,13.54,0,0,0-.42,1.56,1.56,1.56,0,0,0,.06,1.08,1.37,1.37,0,0,0,.87.28,42,42,0,0,0,5.13,0c1.09-.07,1.29-.25,1.29-.26s.16-.21.09-1.26c-.45-6.91-.89-12.61-1.37-17.93a3.55,3.55,0,0,0-.52-2,4.76,4.76,0,0,0-2.13-.55c-.93-.1-1.87-.15-2.95-.2l-1.57-.09-1.24.07c-1.06.06-2.26.12-3.4.29-1.37.2-1.49.8-1.44,2.12a13.35,13.35,0,0,1-.65,4.66,41.18,41.18,0,0,1-1.59,3.84c-.34.74-.69,1.5-1,2.25l-.36.9c-1,2.4-2,4.88-2.85,7.35-.12.34-.09.51-.07.53s.17.14.56.17a32.23,32.23,0,0,0,5.3,0c.6,0,1.24-.22,1.24-1.54,0-1.81,0-2.9.86-3.72A3.5,3.5,0,0,1,21.68,46.78Zm1.9-1.62h-.06c-.8,0-1.57-.11-2.32-.2l-.83-.1-1.54-.16L19,43.17A.76.76,0,0,0,19,43a3.79,3.79,0,0,1,.14-.82c.15-.46.29-.92.44-1.39.56-1.78,1.15-3.63,1.8-5.43a3.32,3.32,0,0,1,1.25-1.49l.3-.24,1.6-1.5.85,2,.16.34a4.22,4.22,0,0,1,.53,1.55,17.09,17.09,0,0,1,.05,1.74h.12v4.69a2,2,0,0,1-.63,1.84A3.36,3.36,0,0,1,23.58,45.16ZM22.41,42l.8.07c0-.42,0-.83,0-1.25h-.14v-.92c-.2.6-.39,1.21-.58,1.8Z"/><path class="cls-2" d="M120.15,54.94c-2.61-.07-4.89-.25-7-1.38a6.45,6.45,0,0,1-3.6-5.14c-.56-5,.46-9.5,5-12.22a16,16,0,0,1,15-.75c2.74,1.17,3.75,3.65,3.88,6.49.36,7.36-4.23,12.44-11.58,12.89Zm3.79-12.73-.21-.05v-.73c0-1.78-.42-2.69-1.29-2.81s-1.83.66-2.17,2.24a66.1,66.1,0,0,0-1,7c-.11,1-.11,2.26,1.16,2.48s1.83-1,2.11-1.94C123.1,46.37,123.48,44.28,123.94,42.21Z"/><path class="cls-2" d="M120.17,56.46h-.07a16.42,16.42,0,0,1-7.66-1.56,8,8,0,0,1-4.38-6.31c-.72-6.39,1.22-11,5.77-13.7a17.54,17.54,0,0,1,16.37-.84c2.07.88,4.58,3,4.82,7.82.38,8.16-4.85,14-13,14.48l-1.38.09Zm2.45-21a14,14,0,0,0-7.24,2c-3.52,2.09-4.88,5.5-4.3,10.74a4.94,4.94,0,0,0,2.81,4,13.46,13.46,0,0,0,6.23,1.19h.32l1.38-.09A10.84,10.84,0,0,0,129.46,50,10.78,10.78,0,0,0,132,42c-.12-2.68-1.09-4.36-3-5.16A16.28,16.28,0,0,0,122.62,35.46Zm-1.9,16.44a3.88,3.88,0,0,1-.57,0c-1-.18-2.74-1-2.41-4.14a68.84,68.84,0,0,1,1-7.17c.41-1.91,1.87-3.7,3.87-3.43,1.13.16,2.46,1,2.59,3.86l.5.12-.32,1.45c-.13.59-.26,1.2-.38,1.8-.31,1.47-.63,3-1.05,4.48a5,5,0,0,1-1,2A3,3,0,0,1,120.72,51.9Zm1.39-11.59a2.15,2.15,0,0,0-.35.87,65.33,65.33,0,0,0-1,6.85,3.22,3.22,0,0,0,0,.74,2.91,2.91,0,0,0,.31-.76c.39-1.4.7-2.87,1-4.3l.15-.72V41.43A5.09,5.09,0,0,0,122.11,40.31Z"/><path class="cls-2" d="M71.84,53c-1.77,2-4.33,2.07-7,1.83A4.18,4.18,0,0,1,61,50.9a7.11,7.11,0,0,1,6.89-8.2c1.94-.09,3.88-.12,5.67,1.11.55-1.14.79-2.22.09-3.16s-2-1-3.1-.74c-.53.13-1,.59-1.49.76a13.68,13.68,0,0,1-3.08.84c-1.37.12-2.06-.66-2.16-2A4.37,4.37,0,0,1,67,34.78,21.54,21.54,0,0,1,79,34.8c2.51.72,3.68,2.6,3.51,5.28-.26,4.19-.65,8.36-1,12.54a1.7,1.7,0,0,1-1.61,1.7,54.32,54.32,0,0,1-6.38,0C73,54.27,72.47,53.51,71.84,53Zm-2.6-4.46c0,1.18.61,1.89,1.58,1.88a2.71,2.71,0,0,0,2.41-2.72,1.73,1.73,0,0,0-1.87-1.78A2.37,2.37,0,0,0,69.24,48.54Z"/><path class="cls-2" d="M66.72,56.45c-.67,0-1.33-.05-2-.11a5.7,5.7,0,0,1-5.29-5.25,8.78,8.78,0,0,1,1.94-6.85,8.5,8.5,0,0,1,2.2-1.86l-.11-.09a3.73,3.73,0,0,1-1.22-2.71,5.9,5.9,0,0,1,4.34-6.27,23,23,0,0,1,12.78,0c3.14.9,4.82,3.4,4.6,6.84-.19,3-.45,6.1-.7,9.06-.1,1.17-.2,2.34-.29,3.5a3.23,3.23,0,0,1-3,3.1,57.15,57.15,0,0,1-6.56,0,2.62,2.62,0,0,1-1.59-.75A8.66,8.66,0,0,1,66.72,56.45Zm2.44-12.27c-.39,0-.8,0-1.23,0a5.74,5.74,0,0,0-4.2,2,5.8,5.8,0,0,0-1.25,4.52A2.68,2.68,0,0,0,65,53.31c2.94.28,4.58-.11,5.68-1.33l0,0a3,3,0,0,1-2.07-.85,3.51,3.51,0,0,1-1-2.55h0a3.88,3.88,0,0,1,3.49-4.15A8.37,8.37,0,0,0,69.16,44.18Zm4.66,8.62a54.15,54.15,0,0,0,6,0s.14,0,.16-.3l.3-3.51c.24-3,.5-6,.69-9,.13-2-.64-3.22-2.41-3.73a20.08,20.08,0,0,0-11.11,0,2.87,2.87,0,0,0-2.12,3.13,1.21,1.21,0,0,0,.15.6.73.73,0,0,0,.35,0,10,10,0,0,0,2.24-.6l.49-.17a2.62,2.62,0,0,0,.37-.21,4.34,4.34,0,0,1,1.24-.59c2.6-.65,4,.36,4.7,1.32,1.42,1.92.39,4,.05,4.72l-.68,1.39a3.49,3.49,0,0,1,.53,1.81,4.34,4.34,0,0,1-1.26,3.08,4.29,4.29,0,0,1-1,.78l.36.3a9.21,9.21,0,0,1,.7.65Zm-2.4-5.36h0c-.36,0-.64.49-.64,1.1h0a1.1,1.1,0,0,0,0,.36.77.77,0,0,0,.5-.28,1.27,1.27,0,0,0,.39-.89.41.41,0,0,0,0-.24A.39.39,0,0,0,71.42,47.44Zm-.13-6.14a9.32,9.32,0,0,1,1.13.28l0,0C72.31,41.43,72.12,41.17,71.29,41.3Z"/><path class="cls-2" d="M88.68,54.47c-.85,0-1.7.07-2.54,0-2-.18-2.56-.83-2.29-2.74A48.67,48.67,0,0,1,85,46.16a68.78,68.78,0,0,0,1.85-15c.08-2.34.72-3.09,3.11-3.26a35.24,35.24,0,0,1,4.82,0c1.87.13,2.39.91,2,2.74-.8,4.16-1.72,8.3-2.37,12.48a75.46,75.46,0,0,0-.54,8c-.13,2.6-.8,3.32-3.44,3.44-.61,0-1.21,0-1.82,0Z"/><path class="cls-2" d="M89.83,56.07H87.16v0c-.38,0-.77,0-1.16,0a4.24,4.24,0,0,1-3.07-1.34,4.07,4.07,0,0,1-.59-3.13,52.24,52.24,0,0,1,1.21-5.73,67.93,67.93,0,0,0,1.81-14.66c.11-3.18,1.37-4.5,4.52-4.73a35.32,35.32,0,0,1,5,0,4,4,0,0,1,2.93,1.29,4,4,0,0,1,.5,3.26c-.25,1.27-.51,2.56-.76,3.8-.57,2.82-1.16,5.75-1.6,8.62a55,55,0,0,0-.46,6c0,.58,0,1.17-.07,1.76-.16,3.41-1.49,4.74-4.9,4.89ZM88.68,53H90.2V53h.23c1.2,0,1.55-.23,1.65-.33s.28-.46.34-1.65c0-.58,0-1.16.07-1.74A55.65,55.65,0,0,1,93,42.9c.45-2.95,1-5.9,1.63-8.76.25-1.24.5-2.52.75-3.78a2.37,2.37,0,0,0,.06-.81,2.69,2.69,0,0,0-.71-.12,32.24,32.24,0,0,0-4.61,0c-1.07.08-1.35.26-1.42.34s-.24.41-.28,1.46a70.67,70.67,0,0,1-1.9,15.32,51.27,51.27,0,0,0-1.15,5.38,2.4,2.4,0,0,0,0,.82,2.73,2.73,0,0,0,1,.19,11.59,11.59,0,0,0,1.57,0Z"/><path class="cls-2" d="M101.33,54.48c-.81,0-1.62.06-2.42,0-2.07-.19-2.77-1.1-2.35-3.17s.88-3.93,1.36-5.88A67.58,67.58,0,0,0,99.61,31c0-2.06.7-2.92,2.73-3.09a32.88,32.88,0,0,1,5.06-.05c2,.12,2.5.78,2.15,2.75-.43,2.5-1.16,5-1.5,7.46-.56,4.23-1,8.47-1.34,12.72-.21,2.86-.81,3.63-3.69,3.71-.56,0-1.13,0-1.69,0Z"/><path class="cls-2" d="M102.4,56.07H99.81v0a9.27,9.27,0,0,1-1-.05,3.72,3.72,0,0,1-3.71-5c.35-1.71.76-3.42,1.17-5.07l.21-.87a65.06,65.06,0,0,0,1.65-14c.09-3.8,2.4-4.43,4.12-4.58a35.82,35.82,0,0,1,5.29-.05,4,4,0,0,1,3,1.25,4,4,0,0,1,.5,3.28c-.19,1.11-.44,2.2-.67,3.25-.33,1.43-.63,2.78-.82,4.16-.58,4.3-1,8.55-1.33,12.62A5.89,5.89,0,0,1,107,54.78a5.31,5.31,0,0,1-3.9,1.28ZM101.33,53h1.52V53H103c1.24,0,1.66-.21,1.79-.35a4,4,0,0,0,.43-2c.31-4.14.76-8.44,1.35-12.81.2-1.51.53-3,.86-4.42.23-1,.46-2.07.64-3.1a3.32,3.32,0,0,0,.08-.85,3,3,0,0,0-.82-.12,32.5,32.5,0,0,0-4.84,0,1.86,1.86,0,0,0-1.08.32c-.09.1-.23.4-.25,1.3a68.52,68.52,0,0,1-1.74,14.7l-.22.87c-.39,1.62-.8,3.3-1.13,5-.17.85,0,1.07,0,1.07s.17.2,1,.28a14.52,14.52,0,0,0,1.49,0Z"/><path class="cls-2" d="M162.14,54.58c-.72,0-1.45,0-2.17-.12-1.74-.2-2.41-1-2.08-2.69.49-2.54,1.17-5,1.68-7.56a47,47,0,0,0,.78-5.26c0-.5-.46-1.07-.76-1.58s-.77-.85-.88-1.33a5.16,5.16,0,0,1,3.69-6.33,20.41,20.41,0,0,1,5.74-.24c1.54.1,2.14,1,1.86,2.53-.51,2.78-1.37,5.5-1.73,8.28-.46,3.55-.62,7.15-.79,10.73-.12,2.5-.68,3.25-3.16,3.47-.72.06-1.45,0-2.18,0Z"/><path class="cls-2" d="M163.64,56.18l-1.57-.08-.66,0a15.3,15.3,0,0,1-1.62-.1,3.92,3.92,0,0,1-2.9-1.43,3.8,3.8,0,0,1-.5-3.06c.27-1.39.59-2.77.91-4.1.27-1.14.54-2.32.78-3.47a43.84,43.84,0,0,0,.73-4.92,2.74,2.74,0,0,0-.24-.39c-.1-.15-.2-.3-.29-.46l-.24-.31a3.52,3.52,0,0,1-.81-1.44,7,7,0,0,1,.85-5.32,6.35,6.35,0,0,1,4-2.85,22.1,22.1,0,0,1,6.18-.27,3.49,3.49,0,0,1,2.67,1.27,3.73,3.73,0,0,1,.58,3.06c-.22,1.19-.5,2.37-.78,3.52a46.15,46.15,0,0,0-.94,4.68c-.44,3.4-.61,6.93-.77,10.35v.25a5.58,5.58,0,0,1-1.07,3.53A5,5,0,0,1,164.46,56l-.82,0Zm-4.29-3.44a1.92,1.92,0,0,0,.79.21l.51,0v0h2.22a11.45,11.45,0,0,0,1.32,0c1.06-.09,1.37-.27,1.45-.37s.26-.52.32-1.65v-.26c.17-3.47.34-7.06.79-10.59a49.68,49.68,0,0,1,1-5c.27-1.1.54-2.25.74-3.36a1.44,1.44,0,0,0,0-.64A1.23,1.23,0,0,0,168,31a19.05,19.05,0,0,0-5.31.21,3.2,3.2,0,0,0-2.06,1.49,4,4,0,0,0-.5,2.93l.22.27a6.94,6.94,0,0,1,.52.71,3.15,3.15,0,0,0,.2.31,3.4,3.4,0,0,1,.75,2.17,46.05,46.05,0,0,1-.8,5.43c-.24,1.2-.52,2.41-.8,3.57s-.62,2.65-.88,4A1.79,1.79,0,0,0,159.35,52.74Z"/><path class="cls-2" d="M148.65,54.6c-.84-.06-1.7-.07-2.53-.19-1.37-.2-2-.87-1.77-2.25.22-1.63.65-3.24,1-4.86.52-2.69,1-5.38,1.53-8.07a1.59,1.59,0,0,0-.94-2,1.68,1.68,0,0,1-.71-1A5.26,5.26,0,0,1,149,29.68a19.82,19.82,0,0,1,5.5-.25c1.68.12,2.33,1.07,2,2.78-.44,2.41-1.25,4.77-1.56,7.2-.48,3.83-.75,7.7-1,11.56-.14,2.56-.7,3.31-3.24,3.52-.68.06-1.37,0-2.06,0Z"/><path class="cls-2" d="M150.12,56.22l-1.57-.1-.76,0c-.61,0-1.25-.06-1.9-.15a3.25,3.25,0,0,1-3-4c.16-1.13.4-2.23.63-3.29.12-.55.24-1.11.35-1.66l0-.13c.5-2.59,1-5.28,1.5-7.92a1.35,1.35,0,0,0,0-.29l-.08,0a3.1,3.1,0,0,1-1.58-2.07,7.18,7.18,0,0,1,.84-5.46,6.37,6.37,0,0,1,4.08-2.9,21.43,21.43,0,0,1,5.93-.28,3.66,3.66,0,0,1,2.82,1.32,3.94,3.94,0,0,1,.6,3.24c-.2,1.07-.46,2.13-.72,3.15a35.6,35.6,0,0,0-.83,4c-.5,4-.77,8-1,11.45-.16,2.91-1,4.65-4.63,5l-.71,0ZM147.18,53h2.16c.44,0,.86,0,1.24,0,1.11-.09,1.42-.27,1.51-.37s.27-.54.34-1.72c.2-3.48.47-7.59,1-11.66a37.29,37.29,0,0,1,.9-4.33c.25-1,.49-2,.67-3a1.37,1.37,0,0,0,0-.82,1.08,1.08,0,0,0-.62-.16,18.86,18.86,0,0,0-5.08.22,3.32,3.32,0,0,0-2.14,1.54,4,4,0,0,0-.47,3.12s0,.07,0,.11a3,3,0,0,1,1.63,3.56c-.48,2.66-1,5.36-1.51,8l0,.13c-.11.58-.24,1.17-.36,1.73-.23,1-.44,2-.58,3a1.41,1.41,0,0,0,0,.41,1.56,1.56,0,0,0,.49.13q.41.06.84.09Z"/><path class="cls-3" d="M47,50.78c0,1.78,0,3.46,0,5.15,0,2.11-.69,3-2.78,3.2a30.38,30.38,0,0,1-5.31,0c-2-.16-2.62-1-2.25-3,.44-2.37,1.21-4.7,1.54-7.08.59-4.35,1-8.72,1.43-13.09A4.58,4.58,0,0,1,40,33.86a3.07,3.07,0,0,1,2-1.19,50.38,50.38,0,0,1,6,0,1.87,1.87,0,0,1,1.93,2c.33-.25.59-.41.81-.61a6.51,6.51,0,0,1,7-1.6,6.28,6.28,0,0,1,4.33,5.49A15.52,15.52,0,0,1,59.6,49.2a8.51,8.51,0,0,1-9.37,3.44A17.53,17.53,0,0,1,47,50.78Zm.7-6,.11,0c0,.61,0,1.22,0,1.82.07.77.21,1.56,1.16,1.76a1.72,1.72,0,0,0,2-1,16.22,16.22,0,0,0,1.4-9.55A1.3,1.3,0,0,0,50,37.14a5.5,5.5,0,0,0-1.21,2.19C48.29,41.11,48,43,47.65,44.76Z"/><path class="cls-3" d="M25.71,27.05c1.79.11,3.25.14,4.69.29,3,.32,3.74,1,4,3.9.55,6,1,12,1.38,18,.15,2.32-.5,3-2.81,3.14a45,45,0,0,1-5.32,0c-1.89-.13-2.68-1.28-2.33-3.16a20.21,20.21,0,0,1,.54-2c.19-.61,0-.94-.65-.95h-.37c-3.08-.09-3.08-.09-3.1,2.94a2.73,2.73,0,0,1-2.62,3,34.28,34.28,0,0,1-5.55,0,1.86,1.86,0,0,1-1.82-2.71c1-2.81,2.12-5.57,3.25-8.32.82-2,1.85-4,2.55-6a11.69,11.69,0,0,0,.57-4.11c-.09-2.15.6-3.37,2.74-3.69C22.57,27.17,24.31,27.15,25.71,27.05ZM26.8,37.27h-.14c0-1.05.06-2.1,0-3.14a5,5,0,0,0-.58-1.43c-.39.37-1,.68-1.16,1.14-.8,2.23-1.5,4.5-2.22,6.76a4,4,0,0,0-.09.69c1,.1,2,.26,3,.28a1.84,1.84,0,0,0,1.1-.47c.15-.12.07-.53.07-.81C26.8,39.28,26.8,38.27,26.8,37.27Z"/><path class="cls-3" d="M122.21,52.88c-2.6-.07-4.89-.25-7-1.38a6.45,6.45,0,0,1-3.6-5.14c-.55-5,.46-9.5,5-12.22a16,16,0,0,1,15-.75c2.74,1.16,3.75,3.65,3.89,6.49.35,7.36-4.24,12.44-11.59,12.89ZM126,40.15l-.21,0v-.73c0-1.78-.42-2.69-1.29-2.81s-1.83.66-2.17,2.24a65.73,65.73,0,0,0-1,7c-.1,1-.11,2.26,1.16,2.48s1.83-.95,2.11-1.94C125.16,44.31,125.54,42.22,126,40.15Z"/><path class="cls-3" d="M73.9,50.94c-1.77,2-4.33,2.07-7,1.82A4.16,4.16,0,0,1,63,48.84a7.11,7.11,0,0,1,6.89-8.2c1.94-.09,3.88-.12,5.67,1.11.56-1.14.79-2.22.09-3.16a2.72,2.72,0,0,0-3.1-.74c-.53.13-1,.58-1.49.76a13.68,13.68,0,0,1-3.08.84c-1.37.12-2.06-.66-2.16-2a4.37,4.37,0,0,1,3.23-4.69,21.58,21.58,0,0,1,12,0c2.5.72,3.67,2.6,3.5,5.28-.26,4.18-.65,8.36-1,12.54a1.7,1.7,0,0,1-1.6,1.7,54.31,54.31,0,0,1-6.38,0C75,52.2,74.53,51.45,73.9,50.94Zm-2.6-4.46c0,1.18.61,1.89,1.58,1.88a2.71,2.71,0,0,0,2.41-2.72,1.73,1.73,0,0,0-1.87-1.78A2.38,2.38,0,0,0,71.3,46.48Z"/><path class="cls-3" d="M90.74,52.41c-.85,0-1.7.07-2.54,0-2-.18-2.56-.83-2.29-2.74a48.67,48.67,0,0,1,1.18-5.56,68.86,68.86,0,0,0,1.85-15c.08-2.34.72-3.09,3.11-3.26a35.24,35.24,0,0,1,4.82,0c1.87.13,2.39.91,2,2.74-.8,4.16-1.72,8.3-2.37,12.48A75.46,75.46,0,0,0,96,49c-.13,2.6-.8,3.32-3.44,3.44-.61,0-1.21,0-1.82,0Z"/><path class="cls-3" d="M103.39,52.42c-.81,0-1.62.06-2.42,0-2.07-.19-2.77-1.1-2.35-3.17s.88-3.93,1.36-5.88A67.58,67.58,0,0,0,101.67,29c0-2.06.7-2.92,2.74-3.09a32.74,32.74,0,0,1,5-.05c2,.12,2.5.78,2.15,2.75-.43,2.5-1.16,4.95-1.49,7.46-.57,4.23-1,8.47-1.34,12.72-.22,2.86-.82,3.62-3.7,3.71-.56,0-1.13,0-1.69,0Z"/><path class="cls-3" d="M164.2,52.52c-.72,0-1.45,0-2.17-.12-1.74-.2-2.41-1-2.08-2.7.49-2.53,1.17-5,1.68-7.55a47,47,0,0,0,.78-5.26c0-.5-.46-1.07-.76-1.58s-.77-.85-.88-1.33a5.16,5.16,0,0,1,3.69-6.33,20.41,20.41,0,0,1,5.74-.24c1.54.1,2.14,1,1.86,2.53-.51,2.78-1.37,5.5-1.73,8.28-.46,3.55-.62,7.15-.79,10.73-.12,2.5-.68,3.25-3.16,3.47-.72.06-1.45,0-2.17,0Z"/><path class="cls-3" d="M150.71,52.54c-.84-.06-1.7-.07-2.53-.19-1.37-.2-2-.87-1.77-2.25.22-1.63.65-3.24,1-4.86.52-2.69,1-5.38,1.53-8.08a1.58,1.58,0,0,0-.94-2,1.68,1.68,0,0,1-.71-1A5.26,5.26,0,0,1,151,27.62a19.84,19.84,0,0,1,5.5-.25c1.68.12,2.33,1.07,2,2.78-.44,2.41-1.25,4.77-1.56,7.2-.48,3.83-.75,7.7-1,11.56-.14,2.56-.7,3.31-3.24,3.52-.68,0-1.37,0-2.06,0Z"/><path class="cls-4" d="M100.3,67.89c.25-.54.51-1.07.73-1.61a1,1,0,0,1,.84-.66l1.07-.13c.47,0,.7.12.56.65a9.73,9.73,0,0,0-.24,1.07c-.1.82-.18,1.63-.24,2.45,0,.64-.16.82-.78,1l-.34.06c-.93.13-1,0-.83-.91q.2-.8.36-1.59s0-.1-.07-.28c-.4.93-.72,1.74-1.1,2.54a1.2,1.2,0,0,1-.57.52c-.43.16-.7,0-.76-.47-.1-.7-.27-1.38-.41-2.07l-.17,0-.09,1.78a1.14,1.14,0,0,1-1.54,1.09.51.51,0,0,1-.21-.48,16,16,0,0,0,.5-4,.77.77,0,0,1,.42-.54,10.81,10.81,0,0,1,1.86-.26c.15,0,.34.22.4.39.18.47.29,1,.43,1.44Z"/><path class="cls-4" d="M97.13,72.7a2.3,2.3,0,0,1-.92-.19,1.79,1.79,0,0,1-.95-2,14.31,14.31,0,0,0,.46-3.66,2,2,0,0,1,1.42-1.81,12.59,12.59,0,0,1,2.07-.29,1.53,1.53,0,0,1,1,.34,2.27,2.27,0,0,1,1.22-.74l.15-.36.09.32,1.11-.14a1.7,1.7,0,0,1,1.93,2.26l0,.06a6.76,6.76,0,0,0-.18.84c-.12.93-.19,1.69-.24,2.37a2.06,2.06,0,0,1-1.77,2.14l-.43.07h0a2.91,2.91,0,0,1-1.41-.08,2.18,2.18,0,0,1-.52.28,1.79,1.79,0,0,1-1.51,0l-.27.2A2.32,2.32,0,0,1,97.13,72.7Z"/><path class="cls-4" d="M130.27,65.43c0-.52,0-1,.09-1.54,0-.24.24-.6.41-.63a4.22,4.22,0,0,1,1.37.07c.05,0,.1.37.07.56-.17,1.21-.38,2.42-.55,3.63a.72.72,0,0,1-.73.71c-1,.12-1.21,0-1.55-1-.16-.48-.32-1-.49-1.43,0,0-.08-.07-.29-.1,0,.56,0,1.11,0,1.66,0,.28-.19.74-.37.78a4.47,4.47,0,0,1-1.37,0c-.06,0-.14-.25-.15-.38a3.83,3.83,0,0,1,.09-.56c.16-1.08.33-2.16.45-3.25.06-.51.27-.77.78-.78l.39,0c.93,0,1,0,1.29.89.14.45.29.9.44,1.35Z"/><path class="cls-4" d="M130.45,69.54a2.14,2.14,0,0,1-1.38-.4,1.23,1.23,0,0,1-.51.26,4.65,4.65,0,0,1-1.59.09h-.19a1.55,1.55,0,0,1-1.36-1.62,2.35,2.35,0,0,1,.08-.67.52.52,0,0,0,0-.11c0-.3.09-.6.13-.9.12-.76.23-1.54.32-2.31a2,2,0,0,1,2-1.93h.16l.24,0a2.84,2.84,0,0,1,1.61.31,1.63,1.63,0,0,1,.59-.24,5.76,5.76,0,0,1,1.77.07c1,.15,1.26,1.12,1.14,2-.09.59-.18,1.19-.27,1.76s-.19,1.25-.28,1.87a2,2,0,0,1-1.85,1.81Zm.49-5.83h0Z"/><path class="cls-4" d="M35.08,73a16.42,16.42,0,0,1,0,1.72c0,.26-.21.64-.39.66a4.15,4.15,0,0,1-1.37-.23c-.06,0-.13-.38-.1-.57.17-1.24.34-2.48.57-3.71a.74.74,0,0,1,.54-.45,3.12,3.12,0,0,1,.95.07.89.89,0,0,1,.82.72c.16.57.34,1.14.51,1.7h.22V71.37c0-.32.08-.64.46-.62a7.22,7.22,0,0,1,1.36.25s.08.35,0,.52c-.17,1.18-.37,2.35-.54,3.52-.06.43-.22.72-.72.73-.87,0-1.19-.12-1.39-.66-.25-.71-.48-1.42-.71-2.14Z"/><path class="cls-4" d="M37.32,77.05a2.73,2.73,0,0,1-1.92-.6,1.5,1.5,0,0,1-.63.19A5,5,0,0,1,33,76.38a1.73,1.73,0,0,1-1-2c.18-1.34.36-2.55.58-3.77a2,2,0,0,1,1.55-1.48,3.48,3.48,0,0,1,1.13,0,.76.76,0,0,0,.21,0,2.27,2.27,0,0,1,1.11.43,1.8,1.8,0,0,1,.84-.16,9.57,9.57,0,0,1,1.59.28c.58.15,1.19.75,1,2-.09.6-.18,1.21-.28,1.82s-.18,1.13-.26,1.7a2,2,0,0,1-2,1.82Zm1-4.81Z"/><path class="cls-4" d="M118.08,66.08a13.64,13.64,0,0,1,0-1.43c0-.27.18-.72.34-.76a4.52,4.52,0,0,1,1.42-.09c.06,0,.13.32.11.49-.18,1.24-.39,2.48-.56,3.72a.82.82,0,0,1-.8.81c-1,.15-1.17.08-1.49-.9l-.51-1.49-.23,0c0,.47,0,1,0,1.42a1.19,1.19,0,0,1-1.67,1.21.51.51,0,0,1-.25-.35,1.29,1.29,0,0,1,0-.51c.16-1.11.35-2.22.48-3.33.09-.7.17-.82.86-.92l.4,0a.88.88,0,0,1,1.18.74,14.86,14.86,0,0,0,.46,1.43Z"/><path class="cls-4" d="M115.21,70.48a2.83,2.83,0,0,1-.94-.17,1.79,1.79,0,0,1-1.08-1.3,2.2,2.2,0,0,1,0-.88s0,0,0-.08c0-.35.11-.7.16-1,.11-.74.23-1.51.32-2.25a2,2,0,0,1,2-2l.26,0H116a2.38,2.38,0,0,1,1.59.21,1.49,1.49,0,0,1,.49-.24,5.72,5.72,0,0,1,1.76-.13h.05a1.29,1.29,0,0,1,.95.47,2.06,2.06,0,0,1,.38,1.48c-.09.58-.18,1.17-.26,1.74s-.21,1.32-.3,2a2.09,2.09,0,0,1-1.9,1.91,2.63,2.63,0,0,1-1.93-.25,2.75,2.75,0,0,1-.26.22A2.38,2.38,0,0,1,115.21,70.48Zm4.6-5.4Z"/><path class="cls-4" d="M88.48,72.6c-.17,0-.34.06-.51.07-.38,0-.55-.16-.48-.54a7.71,7.71,0,0,0,.21-1,.42.42,0,0,0-.27-.37c-.23,0-.57,0-.6.37a9.73,9.73,0,0,0,0,1.08.65.65,0,0,1-.57.71c-1.79.38-1.7.2-1.39-1.28a20.49,20.49,0,0,0,.35-2.9c0-.49.2-.72.65-.81l.17,0c1.3-.25,1.37-.17,1.11,1.14,0,.19-.06.48,0,.55a.64.64,0,0,0,.58-.06c.13-.1.14-.36.21-.55,0,0,0,0,0-.06.06-.39,0-1,.19-1.11a4.16,4.16,0,0,1,1.59-.37c.12,0,.33.34.32.53,0,.44-.21.88-.27,1.31a17.71,17.71,0,0,0-.17,2C89.61,72.39,89.58,72.45,88.48,72.6Z"/><path class="cls-4" d="M85.15,74.35a1.71,1.71,0,0,1-1.28-.47c-.66-.66-.48-1.51-.29-2.4l0-.13a19.33,19.33,0,0,0,.32-2.71,2,2,0,0,1,1.7-2h.06l.1,0a3.13,3.13,0,0,1,1.82,0,5.34,5.34,0,0,1,2-.49,1.41,1.41,0,0,1,1.13.42A2,2,0,0,1,91.35,68a5.61,5.61,0,0,1-.18.94c0,.17-.08.32-.1.44-.06.54-.14,1.24-.16,1.91a2.58,2.58,0,0,1-.49,1.82,2.64,2.64,0,0,1-1.77.72l-.12,0c-.14,0-.3,0-.47.06a2.14,2.14,0,0,1-.8-.1,2.2,2.2,0,0,1-.75.31A7.29,7.29,0,0,1,85.15,74.35Z"/><path class="cls-4" d="M24.27,71.07c.92.65,1.05,1.87.25,2.23a2.48,2.48,0,0,1-1.31.11,24.13,24.13,0,0,1-2.54-.63c-.58-.17-.65-.34-.56-.9.19-1.16.36-2.32.49-3.49,0-.4.21-.61.61-.5,1,.26,1.95.51,2.93.8a1.27,1.27,0,0,1,.92,1.06A1.07,1.07,0,0,1,24.27,71.07ZM22,71.89c.13.14.27.39.4.42.47.12.63-.2.66-.6a.64.64,0,0,0-.5-.72C22,70.88,22.23,71.52,22,71.89Zm.21-2c.21.24.33.46.46.5.39.12.6-.12.55-.47s-.28-.48-.43-.71Z"/><path class="cls-4" d="M23.71,74.73a4.38,4.38,0,0,1-.71-.06A23.47,23.47,0,0,1,20.31,74a1.85,1.85,0,0,1-1.46-2.34c.2-1.27.36-2.39.48-3.43a1.83,1.83,0,0,1,.76-1.38,1.72,1.72,0,0,1,1.45-.21l.67.18c.75.2,1.53.4,2.3.64a2.55,2.55,0,0,1,1.82,2.08A2.47,2.47,0,0,1,26,71.23a2.63,2.63,0,0,1,.28,1.45,2.19,2.19,0,0,1-1.27,1.79A3.32,3.32,0,0,1,23.71,74.73Zm-1.91-3,.26.07.25-.23h0a1.64,1.64,0,0,1-.4-.19.73.73,0,0,0-.11.23A.32.32,0,0,0,21.8,71.77Zm.35-2.3a.63.63,0,0,0-.13.2l.27-.17Z"/><path class="cls-4" d="M143.24,66.07a1.09,1.09,0,0,1,.86,1.24,1.2,1.2,0,0,1-1,1.17,4.11,4.11,0,0,1-1,.09c-.76,0-1.51-.09-2.27-.14s-.75-.19-.65-.82c.19-1.22.33-2.44.54-3.65,0-.21.31-.52.48-.51a21.68,21.68,0,0,1,3.1.3,1,1,0,0,1,.85,1A1.2,1.2,0,0,1,143.24,66.07Zm-1,.76c-.2-.2-.34-.47-.55-.56s-.42.19-.47.44a1,1,0,0,0,0,.39c0,.17.06.46.12.47a.71.71,0,0,0,.56-.09C142,67.36,142,67.13,142.21,66.83Zm.33-1.77c-.34-.3-.53-.61-.72-.62-.48,0-.33.48-.39.77,0,.11.19.29.3.43Z"/><path class="cls-4" d="M142.28,69.86H142c-.67,0-1.34-.08-2-.12l-.31,0A2.1,2.1,0,0,1,138.2,69a2,2,0,0,1-.31-1.63c.08-.49.15-1,.22-1.5.1-.71.2-1.44.32-2.17a1.94,1.94,0,0,1,1.8-1.58,26.67,26.67,0,0,1,3.26.32,2.32,2.32,0,0,1,1.92,2.16,2.66,2.66,0,0,1-.27,1.42,2.63,2.63,0,0,1-1.73,3.67A5.07,5.07,0,0,1,142.28,69.86Zm-.54-2.59.39,0h0l.18-.18L142,67l0,0Zm-1.61-2.54Z"/><path class="cls-4" d="M29.32,72.73a8.84,8.84,0,0,1,.67,1,1.12,1.12,0,0,1,.17.78c-.06.16-.4.2-.64.25a1.55,1.55,0,0,1-.45-.07c-1.05-.18-1-.19-1.09-1.21a6,6,0,0,0-.13-.69l-.23,0a7,7,0,0,0-.05.92c.05.47-.15.66-.59.6-1.73-.25-1.68-.38-1.36-1.78a20.38,20.38,0,0,0,.3-2.62c.06-.67.16-.8.84-.69s1.4.24,2.09.39a1.7,1.7,0,0,1,1.44,1.13,1.68,1.68,0,0,1-.56,1.81C29.62,72.56,29.5,72.62,29.32,72.73Zm-1.67-1.44c.11.14.23.43.37.46.47.12.59-.27.58-.62s-.28-.68-.43-.71C27.59,70.31,27.86,70.91,27.65,71.29Z"/><path class="cls-4" d="M29.45,76a2.37,2.37,0,0,1-.54-.07h-.06a4,4,0,0,1-1.32-.43,2.42,2.42,0,0,1-.72,0,3.12,3.12,0,0,1-2.34-1,2.66,2.66,0,0,1-.11-2.28v-.06a14.27,14.27,0,0,0,.23-1.87c0-.19,0-.38,0-.57A1.8,1.8,0,0,1,27,67.88c.7.11,1.43.25,2.16.41a3,3,0,0,1,2.38,2A3,3,0,0,1,31.05,73a.83.83,0,0,1,.07.13,2.3,2.3,0,0,1,.24,1.84,1.78,1.78,0,0,1-1.51,1h-.08A1.19,1.19,0,0,1,29.45,76Zm-2.1-4.63.65.11-.35-.19.72-.54-.64-.13a.51.51,0,0,0-.13.09.71.71,0,0,0-.28.49.51.51,0,0,0,0,.16Z"/><path class="cls-4" d="M156.49,68.67c0,.42,0,.83,0,1.26s-.14.65-.59.58c-1.74-.27-1.69-.35-1.38-1.78a24.63,24.63,0,0,0,.38-2.77c0-.43.2-.61.63-.56l.28,0c1.16.2,1.25.32,1,1.39-.05.24-.07.49-.1.74l.19.12a5.49,5.49,0,0,0,.55-1.21c.12-.53.42-.64.91-.46s.77.35,1.16.53a4.78,4.78,0,0,1-.51,1c-1,1.1-1,.81-.07,2.44a1.41,1.41,0,0,1,.2,1c-.08.18-.56.1-.87.12A1.37,1.37,0,0,1,158,71c-1-.24-1-.25-1-1.22,0-.34-.12-.71-.18-1.07Z"/><path class="cls-4" d="M158.73,72.36h-.34a1.83,1.83,0,0,1-.68-.1h0a3.74,3.74,0,0,1-1.22-.47,2.25,2.25,0,0,1-.74,0c-1-.15-1.83-.28-2.32-1a2.65,2.65,0,0,1-.13-2.23v-.09a21.25,21.25,0,0,0,.36-2.61,1.9,1.9,0,0,1,.66-1.37,1.83,1.83,0,0,1,1.41-.36l.34,0a3.38,3.38,0,0,1,1.53.55,2.06,2.06,0,0,1,1.28.1,9.27,9.27,0,0,1,1,.42l.3.15,1.21.56-.61,1.19a2.68,2.68,0,0,0-.12.24,3.22,3.22,0,0,1-.57,1l-.28.31c0,.09.1.18.14.26l.23.39a2.64,2.64,0,0,1,.24,2.19A1.65,1.65,0,0,1,158.73,72.36Z"/><path class="cls-4" d="M54.67,74.16A3.06,3.06,0,0,1,58.41,71a1.59,1.59,0,0,1,1.44,1.39,3.18,3.18,0,0,1-3.78,3.8C55.11,76,54.66,75.32,54.67,74.16Zm3.25-1.27-.07,0a.43.43,0,0,0,0-.16c-.09-.24-.19-.48-.28-.71-.2.19-.53.36-.58.58a10.8,10.8,0,0,0-.29,2c0,.18.19.37.29.56.18-.14.46-.26.52-.44C57.69,74.07,57.79,73.47,57.92,72.89Z"/><path class="cls-4" d="M56.74,77.48a5.69,5.69,0,0,1-.91-.08,3,3,0,0,1-2.44-3.25,4.58,4.58,0,0,1,1.54-3.55,4.53,4.53,0,0,1,3.69-.92,2.87,2.87,0,0,1,2.49,2.44,4.57,4.57,0,0,1-1.24,4.1A4.41,4.41,0,0,1,56.74,77.48Z"/><path class="cls-4" d="M77.46,71.09a3.33,3.33,0,0,1-3.73,3.53,1.44,1.44,0,0,1-1.43-1.3,3.36,3.36,0,0,1,3.47-4.07C77,69.28,77.47,69.83,77.46,71.09Zm-3.29,1.74.44.67c.2-.26.51-.51.58-.79A7.44,7.44,0,0,0,75.43,71c0-.22-.19-.41-.29-.61-.18.18-.47.34-.53.54C74.43,71.49,74.33,72.09,74.17,72.83Z"/><path class="cls-4" d="M74,75.91l-.4,0A2.71,2.71,0,0,1,71,73.53a4.79,4.79,0,0,1,1.06-4A4.69,4.69,0,0,1,75.8,68a2.8,2.8,0,0,1,2.94,3.14h0a4.89,4.89,0,0,1-1.49,3.62A4.7,4.7,0,0,1,74,75.91Z"/><path class="cls-4" d="M105.89,70.23c-1.59.21-2.31-.46-2.22-2.07a3.32,3.32,0,0,1,3.87-3.25,1.41,1.41,0,0,1,1.28,1.2A3.36,3.36,0,0,1,105.89,70.23Zm-.25-2.07h.06a1.31,1.31,0,0,0,0,.28c.08.24.18.47.27.7.21-.23.55-.44.61-.68a10.44,10.44,0,0,0,.26-1.91c0-.19-.18-.37-.28-.55-.18.16-.46.3-.52.48C105.86,67,105.77,67.6,105.64,68.16Z"/><path class="cls-4" d="M105.37,71.55a3,3,0,0,1-2.09-.73,3.28,3.28,0,0,1-.89-2.73,4.82,4.82,0,0,1,1.73-3.5,4.58,4.58,0,0,1,3.61-1,2.67,2.67,0,0,1,2.34,2.19,4.59,4.59,0,0,1-.71,3.71,4.66,4.66,0,0,1-3.3,2A5.6,5.6,0,0,1,105.37,71.55Z"/><path class="cls-4" d="M133.77,68.23H133c-.75,0-.88-.19-.74-.94.17-1,.37-2,.48-2.94.14-1.19.1-1.21,1.3-1.19a12.26,12.26,0,0,1,1.91.13,1.61,1.61,0,0,1,1.38,1.47c.19,1.75-.56,3.57-3,3.48Zm1.64-3.14h-.08c0-.1,0-.21,0-.28s-.28-.43-.42-.64a2,2,0,0,0-.38.59,14.14,14.14,0,0,0-.26,1.83,1.86,1.86,0,0,0,.15.64c.19-.15.48-.26.55-.45A15.94,15.94,0,0,0,135.41,65.09Z"/><path class="cls-4" d="M134.45,69.52h-2v0a1.85,1.85,0,0,1-1.2-.63,2.15,2.15,0,0,1-.32-1.79l.12-.65c.14-.77.27-1.49.36-2.21v-.1a2.48,2.48,0,0,1,.69-1.79,2.6,2.6,0,0,1,1.89-.44l.89,0h0a10.22,10.22,0,0,1,1.2.13,2.87,2.87,0,0,1,2.44,2.59,4.59,4.59,0,0,1-1,3.68A4,4,0,0,1,134.45,69.52Z"/><path class="cls-4" d="M114.38,66.18a3.23,3.23,0,0,1-3.65,3.42,1.48,1.48,0,0,1-1.52-1.4,3.33,3.33,0,0,1,3.46-4C113.9,64.31,114.41,64.89,114.38,66.18Zm-1.9-.18-.42-.65c-.2.24-.52.46-.58.72a9.6,9.6,0,0,0-.27,1.85c0,.19.19.38.29.56.19-.17.48-.32.54-.52A19.27,19.27,0,0,0,112.48,66Z"/><path class="cls-4" d="M111,70.88h-.31a2.77,2.77,0,0,1-2.73-2.51,4.83,4.83,0,0,1,1.16-3.94A4.55,4.55,0,0,1,112.73,63a2.83,2.83,0,0,1,2.94,3.23h0a4.81,4.81,0,0,1-1.44,3.5A4.62,4.62,0,0,1,111,70.88Z"/><path class="cls-4" d="M60.31,74.16c.08-.93.14-1.85.26-2.78a.74.74,0,0,1,.43-.5,4.74,4.74,0,0,1,1.06-.14c.43,0,.62.2.54.63-.12.64-.27,1.27-.38,1.91a3.07,3.07,0,0,0-.07.9c0,.16.19.4.31.41a.61.61,0,0,0,.47-.32,13.85,13.85,0,0,0,.33-1.68c.06-.45,0-.9.09-1.36s.46-.73,1.29-.71c.52,0,.62.3.52.74-.21,1-.42,2-.68,3a1.84,1.84,0,0,1-1.63,1.46,6.25,6.25,0,0,1-1,.1C60.63,75.87,60.22,75.42,60.31,74.16Z"/><path class="cls-4" d="M61.83,77.14a2.84,2.84,0,0,1-2.16-.78,2.9,2.9,0,0,1-.63-2.3h0c0-.24,0-.48.05-.71.06-.69.11-1.4.2-2.12a2,2,0,0,1,1.31-1.56,4.44,4.44,0,0,1,1.22-.19H62a1.88,1.88,0,0,1,1,.17,3.13,3.13,0,0,1,1.71-.4,1.79,1.79,0,0,1,1.45.65,1.9,1.9,0,0,1,.31,1.64l-.12.54c-.17.83-.36,1.69-.58,2.54A3.13,3.13,0,0,1,63,77h-.11a7.41,7.41,0,0,1-1,.11Z"/><path class="cls-4" d="M124.26,67.27c-.74-.12-.71-.11-.83.58,0,.21-.28.4-.44.6a.18.18,0,0,1-.11,0l-1.36-.09a7.79,7.79,0,0,1,.21-1.19c.21-.62.53-1.2.75-1.82a3.58,3.58,0,0,0,.24-1.15c0-.43.19-.72.62-.76.69,0,1.39-.08,2.08-.07.36,0,.56.22.59.61q.12,1.8.27,3.6c0,.52-.21.73-.69.75l-.23,0C124.19,68.46,124.14,68.42,124.26,67.27Zm.2-2.75-.28,0-.57,1.7.1.15c.25-.1.69-.17.72-.3A9.62,9.62,0,0,0,124.46,64.52Z"/><path class="cls-4" d="M122.9,69.76h-.1l-.61,0-.75,0L120,69.58l.23-1.4a3.11,3.11,0,0,0,0-.32,4.82,4.82,0,0,1,.22-1.08c.13-.38.28-.72.43-1.06s.24-.53.33-.77a2.85,2.85,0,0,0,.16-.79,1.9,1.9,0,0,1,1.79-2c.74-.06,1.48-.09,2.21-.08a1.84,1.84,0,0,1,1.85,1.81c.08,1.23.17,2.44.27,3.57a1.88,1.88,0,0,1-1.9,2.14h-.21a2.94,2.94,0,0,1-1.67-.2A1.4,1.4,0,0,1,122.9,69.76Z"/><path class="cls-4" d="M147.09,67.86l-.73-.09s-.07.08-.07.11c-.06,1-.82,1.35-1.73.82a.75.75,0,0,1-.23-.65c.24-.69.59-1.33.84-2a7.87,7.87,0,0,0,.38-1.52c.06-.35.18-.59.53-.56a14.22,14.22,0,0,1,2.24.32.93.93,0,0,1,.49.63c.14,1.26.2,2.51.3,3.76,0,.45-.2.59-.6.56-.13,0-.26,0-.39,0C147,69.07,147,69,147.09,67.86Zm-.67-1.1.79.09V65.17l-.2-.07Z"/><path class="cls-4" d="M148.59,70.52h-.15l-.47,0a3,3,0,0,1-1.58-.5h0a2.48,2.48,0,0,1-2.47-.17,2,2,0,0,1-.79-2.17c.15-.42.32-.8.48-1.17s.26-.58.36-.86a6.49,6.49,0,0,0,.33-1.28,1.74,1.74,0,0,1,1.89-1.64,16.92,16.92,0,0,1,2.43.35,2.16,2.16,0,0,1,1.48,1.75c.09.87.15,1.73.21,2.58,0,.4,0,.81.08,1.21a1.76,1.76,0,0,1-.47,1.44A1.79,1.79,0,0,1,148.59,70.52Z"/><path class="cls-4" d="M41.92,74.49c-.13-.07-.31-.11-.35-.2a.93.93,0,0,1-.11-.62.56.56,0,0,1,.44-.32,12.18,12.18,0,0,1,1.35.05c.36,0,.43.25.39.56a2.45,2.45,0,0,1-3.8,1.86A2,2,0,0,1,39,74.74a2.94,2.94,0,0,1,.82-3.21,3.24,3.24,0,0,1,3.3-.35,1,1,0,0,1,.47.73,1.31,1.31,0,0,1-.42.94c-.13.1-.69-.1-.85-.31-.64-.83-1.28-.51-1.47.32a4.26,4.26,0,0,0-.12,1.33C40.74,74.79,41.32,75,41.92,74.49Z"/><path class="cls-4" d="M41.27,77.49a4.24,4.24,0,0,1-2.05-.55,3.29,3.29,0,0,1-1.51-1.86,4.25,4.25,0,0,1,1.22-4.53A4.47,4.47,0,0,1,43.46,70a2.19,2.19,0,0,1,1.36,2,2.71,2.71,0,0,1-.18.89,1.83,1.83,0,0,1,.27,1.31,3.8,3.8,0,0,1-2,3A3.47,3.47,0,0,1,41.27,77.49Zm2-5.73h0Z"/><path class="cls-4" d="M92.17,71.1c.27-.12.5-.21.72-.33s.32-.27.49-.34c.33-.13.67-.21,1-.31a5.82,5.82,0,0,1,.06,1,.8.8,0,0,1-.77.7c-1,.15-1.93.3-2.89.42-.58.07-.68-.1-.59-.72.16-1.21.33-2.43.45-3.64a.72.72,0,0,1,.62-.75c1-.18,2.07-.35,3.11-.46.54-.06.45.39.38.76-.11.54-.41.86-.78.77s-.57-.27-.88-.37c-.15,0-.48,0-.49,0a3,3,0,0,0-.19.88s.3.07.47.08.11,0,.16,0c.23,0,.64-.06.64,0a1.66,1.66,0,0,1-.09.88c-.06.14-.42.24-.62.24C92.2,69.89,92.06,70.06,92.17,71.1Z"/><path class="cls-4" d="M90.58,73.56a1.67,1.67,0,0,1-1.23-.48,1.93,1.93,0,0,1-.42-1.71c.15-1.09.32-2.35.44-3.6a2,2,0,0,1,1.68-1.88c.93-.17,2-.35,3.19-.47a1.64,1.64,0,0,1,1.44.49A2,2,0,0,1,96,67.68a2.77,2.77,0,0,1-.45,1.08L95.66,70l0,.25a4,4,0,0,1,0,1,2.07,2.07,0,0,1-1.86,1.83l-.53.08c-.78.12-1.59.24-2.39.34A2.73,2.73,0,0,1,90.58,73.56Z"/><path class="cls-4" d="M46.35,75a13.62,13.62,0,0,1-1.24-1,3,3,0,0,1-.85-1,1.34,1.34,0,0,1,1-1.77,8.82,8.82,0,0,1,2.12,0,.81.81,0,0,1,.58.49,1.93,1.93,0,0,1-.23,1.05c0,.09-.5,0-.72-.06s-.36-.34-.57-.45-.3,0-.45,0c0,.14,0,.34.14.43.34.28.7.53,1.06.78a1.5,1.5,0,0,1,.69,1.61,1.3,1.3,0,0,1-1.23,1.07,8.92,8.92,0,0,1-2.13,0,1,1,0,0,1-.7-.63A1.85,1.85,0,0,1,44,74.4c.17-.31.55-.26.83,0s.29.36.45.52S45.82,75.31,46.35,75Z"/><path class="cls-4" d="M45.76,77.55a9.73,9.73,0,0,1-1.43-.11,2.26,2.26,0,0,1-1.77-1.65,3.11,3.11,0,0,1,.35-2,2.13,2.13,0,0,1,.16-.25v0a2.62,2.62,0,0,1,.2-2.22A2.53,2.53,0,0,1,45,70a10.06,10.06,0,0,1,2.43,0,2.06,2.06,0,0,1,1.77,1.63,3.33,3.33,0,0,1-.37,1.78l0,.07a2.72,2.72,0,0,1,.31,2,2.59,2.59,0,0,1-2.37,2.1C46.44,77.53,46.1,77.55,45.76,77.55Z"/><path class="cls-4" d="M149.65,67.42c0-2.58,1.8-3.29,4.15-2.36.37.15.67.44.59.82a3.62,3.62,0,0,1-.46,1.17,2.19,2.19,0,0,1-.81-.41c-.31-.26-.45-.82-.94-.74s-.55.58-.61,1a3.42,3.42,0,0,0,0,1c.08.58.5.83,1,.61a4.41,4.41,0,0,1,.62-.37.74.74,0,0,1,.62,0,1,1,0,0,1,.28.61.93.93,0,0,1-.93,1.08,7.4,7.4,0,0,1-2.23-.26C150,69.3,149.64,68.51,149.65,67.42Z"/><path class="cls-4" d="M152.91,71.09a8.32,8.32,0,0,1-2.36-.31,3.16,3.16,0,0,1-2.18-3.37v0A3.89,3.89,0,0,1,150,64c.77-.51,2.14-.94,4.29-.09a2,2,0,0,1,1.38,2.25,4.79,4.79,0,0,1-.6,1.55,2.6,2.6,0,0,1,.28.94,2.31,2.31,0,0,1-.55,1.75,2.18,2.18,0,0,1-1.63.73Zm-.08-4.71Z"/><path class="cls-4" d="M83.1,69.4c-.08.47-.18.93-.22,1.39s0,1,0,1.53a3.18,3.18,0,0,1,0,.62c-.1.49-.89.78-1.79.7-.52,0-.44-.43-.37-.79.18-.95.38-1.89.57-2.84a2.33,2.33,0,0,0,0-.47l-.46.57a4.37,4.37,0,0,1-.51.67c-.32.28-.71.19-.71-.19a4,4,0,0,1,.2-1.4,1.08,1.08,0,0,1,.71-.5c1.28-.22,2.56-.37,3.84-.56.45-.06.69.12.64.57a4.38,4.38,0,0,1-.24,1.13.92.92,0,0,1-.53.48c-.17,0-.37-.2-.5-.36a3.13,3.13,0,0,1-.32-.6Z"/><path class="cls-4" d="M81.32,74.93H80.9a1.72,1.72,0,0,1-1.26-.67,2,2,0,0,1-.26-1.64c0-.14.05-.28.08-.42l-.29-.1a1.6,1.6,0,0,1-1-1.48,5.24,5.24,0,0,1,.27-1.84,2.32,2.32,0,0,1,1.71-1.35l1.2-.18.87-1.07,0,.94.54-.08,1.21-.17a1.84,1.84,0,0,1,1.59.46,1.75,1.75,0,0,1,.5,1.52,5.42,5.42,0,0,1-.32,1.46,2.12,2.12,0,0,1-1.56,1.28h-.16v.24c0,.18,0,.35,0,.52v.13a3.74,3.74,0,0,1,0,.71A2.55,2.55,0,0,1,81.32,74.93Z"/><path class="cls-4" d="M68.41,71.07a5.79,5.79,0,0,1-.25.57,2.19,2.19,0,0,1-.41.57.8.8,0,0,1-.56.18c-.12,0-.26-.26-.26-.41a5.3,5.3,0,0,1,.15-1.18.8.8,0,0,1,.77-.61c1.29-.13,2.57-.27,3.85-.42.44,0,.69.12.64.58a4.66,4.66,0,0,1-.24,1.12.87.87,0,0,1-.52.48c-.17,0-.38-.21-.51-.37a3.3,3.3,0,0,1-.32-.62l-.19.05c-.09.5-.2,1-.25,1.49s0,1,0,1.48a2.63,2.63,0,0,1,0,.56c-.09.48-.89.76-1.78.64-.51-.07-.46-.42-.38-.8l.57-2.76a2.29,2.29,0,0,0,0-.37Z"/><path class="cls-4" d="M68.87,76.49a3.82,3.82,0,0,1-.57,0,1.77,1.77,0,0,1-1.24-.7,2,2,0,0,1-.23-1.63l.1-.47A1.74,1.74,0,0,1,65.65,72a7.12,7.12,0,0,1,.18-1.47,2.1,2.1,0,0,1,1.9-1.58c1.2-.11,2.45-.25,3.82-.41a1.84,1.84,0,0,1,1.59.49,1.77,1.77,0,0,1,.47,1.52,5.68,5.68,0,0,1-.32,1.43,2.1,2.1,0,0,1-1.58,1.28h-.15v.88a3.41,3.41,0,0,1,0,.67A2.45,2.45,0,0,1,68.87,76.49Z"/><path class="cls-4" d="M52.55,73.63A11.14,11.14,0,0,0,53,71.88c.06-.53.28-.73.74-.71s.74.11,1.12.16a8.16,8.16,0,0,1-.38,1.15,5.09,5.09,0,0,1-.68.92,2.41,2.41,0,0,0-.76,2.1c.07.43-.18.68-.61.74l-.22,0c-1.33.11-1.4,0-1.15-1.35a3.18,3.18,0,0,0-.32-1.43c-.15-.46-.42-.89-.53-1.35-.16-.66,0-.87.69-.92h.12c1.23-.06,1.26,0,1.23,1.2,0,.39,0,.78,0,1.17Z"/><path class="cls-4" d="M51.7,77.58A2,2,0,0,1,50.14,77a2.51,2.51,0,0,1-.31-2.28,2.8,2.8,0,0,0-.15-.48l-.12-.36-.19-.46a5.76,5.76,0,0,1-.37-1,2.1,2.1,0,0,1,.24-1.73,2.13,2.13,0,0,1,1.6-.77H51a3.05,3.05,0,0,1,1.7.22,2,2,0,0,1,1.13-.26,6,6,0,0,1,.93.12l.32,0,1.49.22-.45,1.43L56,72a4.51,4.51,0,0,1-.37,1,5.16,5.16,0,0,1-.77,1.08l-.08.09c-.46.54-.52.78-.47,1a1.91,1.91,0,0,1-.3,1.43,2,2,0,0,1-1.37.8l-.31,0C52.16,77.56,51.93,77.58,51.7,77.58Z"/><path class="cls-4" d="M31.57,75.06c-1-.16-1.09-.33-.9-1.27s.34-2.13.46-3.21c0-.38.19-.55.57-.55h.05c1.35,0,1.57.25,1.31,1.52a16.73,16.73,0,0,0-.34,2.57C32.66,75.12,32.62,75.21,31.57,75.06Z"/><path class="cls-4" d="M32.16,76.4a4.66,4.66,0,0,1-.77-.08h0a2.42,2.42,0,0,1-1.75-.86,2.36,2.36,0,0,1-.22-1.92c.21-1.07.34-2.17.45-3.1a1.75,1.75,0,0,1,1.81-1.69h.06a2.76,2.76,0,0,1,2.27.73,2.72,2.72,0,0,1,.31,2.33A16.83,16.83,0,0,0,34,74.19,2.32,2.32,0,0,1,33.32,76,1.74,1.74,0,0,1,32.16,76.4Zm-.47-5.09Z"/><path class="cls-4" d="M161.51,66.84v3.23a7.72,7.72,0,0,1-1.16-.34.91.91,0,0,1-.27-.6c0-.51.1-1,.09-1.49C160.17,66.53,160.31,66.41,161.51,66.84Z"/><path class="cls-4" d="M162.79,71.75l-1.62-.45-.31-.08a5.06,5.06,0,0,1-1-.32,2,2,0,0,1-1-1.76c0-.32,0-.62,0-.89s0-.42,0-.6a2.25,2.25,0,0,1,.74-2,2.42,2.42,0,0,1,2.31,0l.85.3Z"/><path class="cls-4" d="M160.47,71.68c-.38-.13-.77-.29-.77-.84s.41-.81,1.06-.62c.44.13.78.35.78.88S161.14,71.86,160.47,71.68Z"/><path class="cls-4" d="M160.89,73a3,3,0,0,1-.74-.1l-.08,0a2.08,2.08,0,0,1-1.65-2.05,1.91,1.91,0,0,1,.74-1.59,2.15,2.15,0,0,1,2-.27,2.12,2.12,0,0,1,1.71,2.13,1.9,1.9,0,0,1-.73,1.52A1.94,1.94,0,0,1,160.89,73Zm-.1-2.55a.68.68,0,0,0-.31.18.72.72,0,0,0-.23.43.54.54,0,0,0,.18.35l.12,0Zm.07.06-.29.86a.92.92,0,0,0,.19-.13.62.62,0,0,0,.22-.43A.55.55,0,0,0,160.86,70.53Z"/><path class="cls-5" d="M100.62,67.36c.25-.53.51-1.06.73-1.61a1,1,0,0,1,.84-.65c.36,0,.71-.1,1.07-.13s.71.12.57.64a8.42,8.42,0,0,0-.25,1.08c-.1.81-.18,1.63-.24,2.44,0,.65-.15.83-.78,1a2,2,0,0,1-.34.06c-.92.13-1,0-.82-.91.12-.53.24-1.06.35-1.59,0,0,0-.09-.07-.27-.39.92-.72,1.74-1.1,2.54a1.14,1.14,0,0,1-.57.51c-.43.17-.69,0-.76-.46-.1-.71-.27-1.39-.41-2.08l-.17,0-.09,1.78A1.14,1.14,0,0,1,97,70.8a.49.49,0,0,1-.21-.48,15.51,15.51,0,0,0,.5-4,.75.75,0,0,1,.42-.53,10.84,10.84,0,0,1,1.86-.27c.15,0,.34.22.4.4.18.46.29,1,.43,1.44Z"/><path class="cls-5" d="M130.59,64.94a13.27,13.27,0,0,1,.1-1.54c0-.23.23-.6.4-.62a4.51,4.51,0,0,1,1.37.06,1.05,1.05,0,0,1,.07.57c-.17,1.21-.38,2.42-.55,3.63a.73.73,0,0,1-.73.71c-1,.11-1.21,0-1.55-1-.16-.48-.32-1-.49-1.43,0,0-.08-.07-.29-.1,0,.56,0,1.11,0,1.66,0,.28-.19.74-.37.78a4.47,4.47,0,0,1-1.37,0c-.06,0-.14-.25-.15-.38a3.44,3.44,0,0,1,.09-.56c.16-1.09.33-2.17.45-3.25.06-.51.27-.77.78-.78l.39,0c.93,0,1,0,1.29.9.14.45.29.9.44,1.35Z"/><path class="cls-5" d="M35.4,72.54a16.58,16.58,0,0,1,0,1.73c0,.25-.21.64-.39.65a4.15,4.15,0,0,1-1.37-.21c-.06,0-.12-.39-.1-.57.17-1.25.35-2.49.57-3.72a.74.74,0,0,1,.54-.45,3.45,3.45,0,0,1,.95.06.89.89,0,0,1,.82.72c.16.57.34,1.14.51,1.7h.22V70.92c0-.32.08-.64.46-.62a8.08,8.08,0,0,1,1.36.24s.08.35,0,.52c-.17,1.18-.36,2.35-.54,3.53-.06.43-.21.72-.71.73-.88,0-1.2-.12-1.4-.65-.25-.71-.47-1.43-.71-2.14Z"/><path class="cls-5" d="M118.4,65.57a13.66,13.66,0,0,1,0-1.43c0-.27.18-.72.34-.76a4.83,4.83,0,0,1,1.42-.09c.06,0,.13.33.11.5-.18,1.23-.39,2.47-.56,3.71a.83.83,0,0,1-.8.82c-1,.14-1.17.07-1.49-.91l-.51-1.49-.23,0c0,.47,0,1,0,1.42A1.19,1.19,0,0,1,115,68.59a.51.51,0,0,1-.25-.36,1.47,1.47,0,0,1,0-.5c.16-1.11.35-2.22.48-3.33.09-.7.17-.82.87-.92l.39,0a.88.88,0,0,1,1.18.74,14,14,0,0,0,.46,1.43Z"/><path class="cls-5" d="M88.8,72.07c-.17,0-.34.06-.51.07-.38,0-.55-.16-.47-.54a9.18,9.18,0,0,0,.2-1,.42.42,0,0,0-.27-.37c-.23,0-.57,0-.6.38s0,.72,0,1.07a.64.64,0,0,1-.57.71c-1.79.38-1.7.2-1.39-1.28a20.49,20.49,0,0,0,.35-2.9c0-.49.2-.72.65-.8l.17,0c1.3-.25,1.37-.17,1.11,1.14,0,.19-.06.48,0,.55a.61.61,0,0,0,.58-.06c.13-.09.14-.36.21-.55v-.06c.06-.38,0-1,.2-1.11a4.3,4.3,0,0,1,1.58-.37c.13,0,.33.34.32.54,0,.43-.21.87-.27,1.3-.08.69-.15,1.37-.17,2C89.93,71.86,89.9,71.92,88.8,72.07Z"/><path class="cls-5" d="M24.59,70.66c.92.65,1.05,1.86.25,2.23a2.47,2.47,0,0,1-1.31.11A20,20,0,0,1,21,72.38c-.58-.16-.65-.33-.56-.9.19-1.15.36-2.31.5-3.49,0-.4.2-.6.6-.5,1,.26,1.95.51,2.93.8a1.25,1.25,0,0,1,.92,1A1.07,1.07,0,0,1,24.59,70.66Zm-2.27.83c.13.14.27.39.4.42.47.11.63-.2.66-.6a.63.63,0,0,0-.5-.73C22.28,70.48,22.55,71.11,22.32,71.49Zm.21-2c.21.24.33.46.46.5.39.12.6-.13.55-.48s-.28-.47-.43-.71Z"/><path class="cls-5" d="M143.56,65.61a1.1,1.1,0,0,1,.86,1.25,1.2,1.2,0,0,1-1,1.17,3.7,3.7,0,0,1-1,.08c-.76,0-1.51-.09-2.26-.15s-.76-.19-.66-.82c.19-1.21.33-2.44.54-3.65,0-.2.31-.51.48-.51a25,25,0,0,1,3.1.31,1,1,0,0,1,.85,1A1.19,1.19,0,0,1,143.56,65.61Zm-1,.76c-.2-.2-.34-.47-.55-.56s-.41.19-.47.44a1.29,1.29,0,0,0,0,.39c0,.17.06.46.12.48a.8.8,0,0,0,.56-.09C142.31,66.91,142.37,66.67,142.53,66.37Zm.33-1.76c-.34-.31-.53-.62-.72-.63-.48,0-.33.48-.39.77,0,.12.19.29.3.43C142.27,65,142.49,64.86,142.86,64.61Z"/><path class="cls-5" d="M29.64,72.31a7.88,7.88,0,0,1,.67,1,1.12,1.12,0,0,1,.17.78c-.06.17-.4.2-.64.25a1.41,1.41,0,0,1-.44-.06c-1.06-.19-1-.19-1.1-1.21a4.39,4.39,0,0,0-.13-.69l-.23,0a7.25,7.25,0,0,0-.05.93c.05.47-.15.66-.58.6-1.74-.24-1.69-.37-1.37-1.78a20.18,20.18,0,0,0,.3-2.62c.06-.67.16-.8.84-.69s1.4.24,2.09.39a1.64,1.64,0,0,1,.88,2.93C29.94,72.13,29.82,72.2,29.64,72.31ZM28,70.87c.1.14.22.43.36.46.47.12.6-.28.58-.62s-.28-.68-.43-.71C27.91,69.89,28.18,70.49,28,70.87Z"/><path class="cls-5" d="M156.81,68.26c0,.41,0,.83,0,1.25s-.14.66-.59.59c-1.74-.28-1.69-.35-1.38-1.79a24.77,24.77,0,0,0,.38-2.76c0-.44.21-.62.63-.57l.28,0c1.16.21,1.25.33,1,1.4-.05.24-.07.49-.1.74l.19.12a6,6,0,0,0,.56-1.21c.11-.53.41-.63.9-.45s.77.35,1.16.53a4.78,4.78,0,0,1-.51.95c-1,1.1-1,.8-.07,2.44a1.36,1.36,0,0,1,.2,1c-.08.18-.56.1-.87.12a1.4,1.4,0,0,1-.34-.08c-1-.24-1-.25-1-1.22a8.54,8.54,0,0,0-.18-1.07Z"/><path class="cls-5" d="M55,73.67a3.06,3.06,0,0,1,3.74-3.22,1.59,1.59,0,0,1,1.44,1.38,3.18,3.18,0,0,1-3.78,3.81C55.43,75.47,55,74.83,55,73.67Zm3.25-1.28h-.07a.48.48,0,0,0,0-.17c-.09-.24-.19-.48-.28-.71-.2.19-.52.36-.58.59A11.5,11.5,0,0,0,57,74c0,.19.19.38.29.57.18-.15.46-.27.52-.45C58,73.57,58.11,73,58.24,72.39Z"/><path class="cls-5" d="M77.78,70.56a3.34,3.34,0,0,1-3.73,3.54,1.44,1.44,0,0,1-1.43-1.3,3.38,3.38,0,0,1,3.47-4.08C77.29,68.75,77.79,69.3,77.78,70.56Zm-3.29,1.75.44.67c.2-.27.51-.51.59-.79a8,8,0,0,0,.23-1.75c0-.21-.19-.4-.29-.6-.18.18-.47.34-.53.54C74.75,71,74.65,71.57,74.49,72.31Z"/><path class="cls-5" d="M106.21,69.71c-1.59.21-2.31-.46-2.22-2.07a3.32,3.32,0,0,1,3.87-3.25,1.41,1.41,0,0,1,1.28,1.2A3.36,3.36,0,0,1,106.21,69.71ZM106,67.63H106a1.31,1.31,0,0,0,0,.28c.08.24.18.46.27.69.21-.22.55-.43.61-.68a10.22,10.22,0,0,0,.26-1.9c0-.19-.18-.37-.28-.55-.18.16-.46.3-.52.48C106.18,66.51,106.09,67.08,106,67.63Z"/><path class="cls-5" d="M134.09,67.75h-.79c-.75,0-.88-.19-.74-.94.17-1,.37-2,.48-2.94.14-1.19.11-1.21,1.3-1.19a12.19,12.19,0,0,1,1.91.14,1.61,1.61,0,0,1,1.38,1.47c.19,1.76-.55,3.56-3,3.47h-.51Zm1.64-3.13-.08,0c0-.09,0-.2,0-.28s-.28-.42-.42-.64a2.27,2.27,0,0,0-.38.59,14.05,14.05,0,0,0-.26,1.84,1.86,1.86,0,0,0,.15.63c.19-.14.48-.25.55-.45A15.76,15.76,0,0,0,135.73,64.62Z"/><path class="cls-5" d="M114.71,65.66a3.23,3.23,0,0,1-3.65,3.42,1.48,1.48,0,0,1-1.53-1.4A3.32,3.32,0,0,1,113,63.74C114.22,63.79,114.73,64.37,114.71,65.66Zm-1.9-.17-.43-.65c-.2.23-.51.45-.58.71a9.83,9.83,0,0,0-.27,1.85c0,.2.19.38.29.57.19-.18.48-.33.54-.53C112.55,66.84,112.65,66.22,112.81,65.49Z"/><path class="cls-5" d="M60.64,73.65c.07-.92.13-1.85.25-2.77a.78.78,0,0,1,.43-.51,4.22,4.22,0,0,1,1.06-.13c.43,0,.62.2.54.62-.12.64-.27,1.27-.38,1.91a3.45,3.45,0,0,0-.07.9c0,.16.19.41.31.41a.61.61,0,0,0,.47-.32,13.69,13.69,0,0,0,.33-1.67c.06-.46,0-.91.09-1.37S64.13,70,65,70c.52,0,.62.3.53.74-.22,1-.43,2-.69,3a1.84,1.84,0,0,1-1.63,1.46,7.84,7.84,0,0,1-1,.11C61,75.36,60.54,74.91,60.64,73.65Z"/><path class="cls-5" d="M124.58,66.77c-.74-.12-.71-.11-.83.58,0,.21-.28.4-.44.6a.18.18,0,0,1-.11,0l-1.36-.09a7.92,7.92,0,0,1,.21-1.2c.21-.61.53-1.2.76-1.81a4.21,4.21,0,0,0,.24-1.15c0-.43.18-.72.61-.76.69,0,1.39-.08,2.08-.07a.58.58,0,0,1,.59.62c.08,1.2.17,2.4.27,3.59,0,.52-.21.73-.69.76l-.23,0C124.51,68,124.46,67.92,124.58,66.77Zm.2-2.75-.28,0-.57,1.71a.71.71,0,0,1,.1.14c.25-.1.7-.17.72-.29A9.75,9.75,0,0,0,124.78,64Z"/><path class="cls-5" d="M147.41,67.42l-.73-.09s-.07.08-.07.11c-.06,1-.82,1.34-1.73.81a.79.79,0,0,1-.23-.65c.24-.69.59-1.33.84-2a7.69,7.69,0,0,0,.38-1.52c.06-.35.18-.59.53-.56a15.52,15.52,0,0,1,2.24.33.93.93,0,0,1,.49.64c.14,1.25.2,2.5.3,3.75,0,.45-.2.59-.59.57l-.4,0C147.33,68.63,147.27,68.56,147.41,67.42Zm-.67-1.11.79.1V64.73l-.2-.07Z"/><path class="cls-5" d="M42.24,74c-.13-.07-.31-.11-.35-.2a.94.94,0,0,1-.11-.62.56.56,0,0,1,.44-.32,10.16,10.16,0,0,1,1.35,0c.36,0,.43.25.39.56a2.45,2.45,0,0,1-3.8,1.86,2,2,0,0,1-.89-1.07,3,3,0,0,1,.82-3.22,3.24,3.24,0,0,1,3.3-.35,1,1,0,0,1,.47.73,1.31,1.31,0,0,1-.42.93c-.13.11-.69-.09-.85-.3-.64-.84-1.28-.51-1.47.32A4.26,4.26,0,0,0,41,73.73C41.06,74.33,41.64,74.53,42.24,74Z"/><path class="cls-5" d="M92.49,70.57c.27-.12.5-.21.72-.32a5,5,0,0,1,.49-.35,9,9,0,0,1,1-.3,5.76,5.76,0,0,1,.06,1,.8.8,0,0,1-.77.7c-1,.14-1.93.29-2.89.41-.58.07-.68-.1-.59-.72.17-1.21.33-2.43.45-3.64a.73.73,0,0,1,.62-.75c1-.18,2.07-.34,3.11-.46.54-.06.45.39.38.76-.1.54-.41.86-.78.77s-.57-.27-.88-.37a.84.84,0,0,0-.49,0,3.09,3.09,0,0,0-.19.88s.3.07.47.09.11,0,.16,0c.23,0,.64,0,.64,0a1.53,1.53,0,0,1-.09.87c-.06.14-.42.24-.62.24C92.52,69.36,92.38,69.54,92.49,70.57Z"/><path class="cls-5" d="M46.67,74.56c-.49-.37-.89-.63-1.24-1a3,3,0,0,1-.85-1,1.34,1.34,0,0,1,1-1.77,8.83,8.83,0,0,1,2.12,0,.82.82,0,0,1,.58.5,1.91,1.91,0,0,1-.23,1c0,.09-.5,0-.72,0s-.36-.35-.57-.46-.3,0-.45,0c0,.15,0,.35.14.43a13.11,13.11,0,0,0,1.06.78,1.5,1.5,0,0,1,.69,1.61A1.3,1.3,0,0,1,47,75.74a8.44,8.44,0,0,1-2.13,0,1,1,0,0,1-.7-.62,1.85,1.85,0,0,1,.21-1.15c.17-.31.56-.26.83,0s.29.35.45.52S46.14,74.84,46.67,74.56Z"/><path class="cls-5" d="M150,67c.05-2.59,1.8-3.29,4.15-2.35.37.15.67.44.59.82a3.62,3.62,0,0,1-.46,1.17,2.19,2.19,0,0,1-.81-.41c-.31-.27-.44-.82-.94-.75s-.55.58-.61,1a3.76,3.76,0,0,0,0,1c.08.58.5.83,1,.61.22-.1.39-.29.62-.37a.78.78,0,0,1,.62,0,1,1,0,0,1,.28.61.93.93,0,0,1-.93,1.08,7.41,7.41,0,0,1-2.23-.27C150.36,68.87,150,68.08,150,67Z"/><path class="cls-5" d="M83.42,68.88c-.08.46-.18.92-.22,1.38s0,1,0,1.53a3.33,3.33,0,0,1,0,.63c-.1.48-.88.77-1.79.69-.51,0-.44-.42-.37-.79.18-.94.38-1.89.57-2.84a2.36,2.36,0,0,0,0-.47l-.46.58a4.82,4.82,0,0,1-.51.66c-.32.29-.71.2-.71-.18a4,4,0,0,1,.2-1.4,1.13,1.13,0,0,1,.71-.51c1.28-.21,2.56-.37,3.84-.55.45-.07.69.11.64.57A4.4,4.4,0,0,1,85,69.3a.9.9,0,0,1-.52.48c-.18,0-.38-.19-.51-.35a3.21,3.21,0,0,1-.32-.61Z"/><path class="cls-5" d="M68.73,70.56a5.62,5.62,0,0,1-.25.56,2,2,0,0,1-.41.58.8.8,0,0,1-.56.18c-.12,0-.26-.26-.26-.41a5.23,5.23,0,0,1,.15-1.18.79.79,0,0,1,.77-.61c1.29-.13,2.57-.27,3.85-.42.44-.06.69.11.64.58A4.87,4.87,0,0,1,72.42,71a.88.88,0,0,1-.52.47c-.17,0-.37-.21-.51-.37a3.55,3.55,0,0,1-.32-.61l-.19,0c-.08.5-.2,1-.25,1.5s0,1,0,1.47a2.73,2.73,0,0,1,0,.57c-.09.47-.88.75-1.78.63-.51-.06-.46-.41-.38-.79L69,71.1a2.16,2.16,0,0,0,0-.36Z"/><path class="cls-5" d="M52.87,73.14a11.14,11.14,0,0,0,.49-1.75c.06-.53.28-.73.74-.71a11.18,11.18,0,0,1,1.12.16A7.74,7.74,0,0,1,54.84,72a5.46,5.46,0,0,1-.68.92A2.44,2.44,0,0,0,53.4,75c.07.43-.18.68-.61.74l-.22,0c-1.33.11-1.4,0-1.15-1.34A3.13,3.13,0,0,0,51.1,73c-.15-.46-.42-.89-.53-1.36-.16-.65,0-.86.7-.92h.11c1.23-.06,1.26,0,1.23,1.19,0,.39,0,.78,0,1.17Z"/><path class="cls-5" d="M31.89,74.62c-1-.15-1.09-.32-.9-1.26s.34-2.13.46-3.21c.05-.38.19-.56.57-.55h0c1.35,0,1.57.25,1.31,1.52A16.89,16.89,0,0,0,33,73.68C33,74.69,32.94,74.77,31.89,74.62Z"/><path class="cls-5" d="M161.83,66.45v3.22a7.72,7.72,0,0,1-1.16-.34.89.89,0,0,1-.27-.6c0-.5.1-1,.1-1.48C160.49,66.13,160.63,66,161.83,66.45Z"/><path class="cls-5" d="M160.79,71.28c-.38-.12-.77-.29-.77-.84s.41-.81,1.06-.62c.44.13.78.36.78.89S161.46,71.46,160.79,71.28Z"/></g></g></svg>