<svg xmlns="http://www.w3.org/2000/svg" viewBox="0 0 134.14 134.14"><defs><style>.cls-1{fill:none;opacity:0.5;}.cls-2{fill:#1d1d1b;opacity:0.2;}</style></defs><g id="Layer_2" data-name="Layer 2"><g id="quadrato_per_esportare" data-name="quadrato per esportare"><rect class="cls-1" width="134.14" height="134.14"/></g><g id="icone"><g id="location"><path class="cls-2" d="M66.85,113.28a6.16,6.16,0,0,1-4-2.08C48.56,97,41.42,77.7,41.42,77.7c-2.6-7-3.89-10.52-4.65-15.34C35.59,54.79,34,45.08,39.6,35.92c5.66-9.31,14.94-12.48,17.56-13.33A30.74,30.74,0,0,1,93.69,35.51c7,11.14,4.6,23,3.64,27.86-.55,2.71-2.09,6.39-5.16,13.76A160.24,160.24,0,0,1,72.7,109.39C71.73,110.65,69.6,113.34,66.85,113.28Z"/><path class="cls-2" d="M67.05,36.52a13,13,0,0,0-.61,26A13.37,13.37,0,0,0,80.17,48.23,13.17,13.17,0,0,0,67.05,36.52Z"/></g></g></g></svg>